<svg width="20" height="17" viewBox="0 0 20 17" fill="none" xmlns="http://www.w3.org/2000/svg">
<path d="M2 16.1084C1.45 16.1084 0.979002 15.9124 0.587002 15.5204C0.195002 15.1284 -0.000664969 14.6577 1.69779e-06 14.1084V2.1084C1.69779e-06 1.5584 0.196002 1.0874 0.588002 0.6954C0.980002 0.3034 1.45067 0.107733 2 0.1084H18C18.55 0.1084 19.021 0.3044 19.413 0.6964C19.805 1.0884 20.0007 1.55907 20 2.1084V14.1084C20 14.6584 19.804 15.1294 19.412 15.5214C19.02 15.9134 18.5493 16.1091 18 16.1084H2ZM10 8.9334C10.0833 8.9334 10.171 8.92073 10.263 8.8954C10.355 8.87007 10.4423 8.83273 10.525 8.7834L17.6 4.3584C17.7333 4.27507 17.8333 4.17073 17.9 4.0454C17.9667 3.92007 18 3.78273 18 3.6334C18 3.30007 17.8583 3.05007 17.575 2.8834C17.2917 2.71673 17 2.72507 16.7 2.9084L10 7.1084L3.3 2.9084C3 2.72507 2.70834 2.72107 2.425 2.8964C2.14167 3.07173 2 3.3174 2 3.6334C2 3.80007 2.03333 3.94607 2.1 4.0714C2.16667 4.19673 2.26667 4.2924 2.4 4.3584L9.475 8.7834C9.55834 8.8334 9.646 8.87107 9.738 8.8964C9.83 8.92173 9.91734 8.93407 10 8.9334Z" fill="#EF9516"/>
</svg>
