<svg width="21" height="20" viewBox="0 0 21 20" fill="none" xmlns="http://www.w3.org/2000/svg">
<path d="M15.188 0.358398H6.18799C4.79606 0.359887 3.46157 0.913489 2.47732 1.89773C1.49308 2.88198 0.939477 4.21647 0.937988 5.6084V14.6084C0.939477 16.0003 1.49308 17.3348 2.47732 18.3191C3.46157 19.3033 4.79606 19.8569 6.18799 19.8584H15.188C16.5799 19.8569 17.9144 19.3033 18.8987 18.3191C19.8829 17.3348 20.4365 16.0003 20.438 14.6084V5.6084C20.4365 4.21647 19.8829 2.88198 18.8987 1.89773C17.9144 0.913489 16.5799 0.359887 15.188 0.358398ZM10.688 14.6084C9.79797 14.6084 8.92794 14.3445 8.18792 13.85C7.4479 13.3555 6.87113 12.6527 6.53053 11.8305C6.18994 11.0082 6.10082 10.1034 6.27446 9.23049C6.44809 8.35758 6.87667 7.55575 7.50601 6.92642C8.13534 6.29708 8.93717 5.8685 9.81008 5.69487C10.683 5.52123 11.5878 5.61035 12.4101 5.95094C13.2323 6.29154 13.9351 6.86831 14.4296 7.60833C14.9241 8.34835 15.188 9.21838 15.188 10.1084C15.1867 11.3015 14.7122 12.4454 13.8686 13.289C13.025 14.1327 11.8811 14.6072 10.688 14.6084ZM16.313 5.6084C16.0905 5.6084 15.873 5.54242 15.688 5.4188C15.503 5.29519 15.3588 5.11948 15.2736 4.91392C15.1885 4.70835 15.1662 4.48215 15.2096 4.26392C15.253 4.04569 15.3602 3.84524 15.5175 3.6879C15.6748 3.53057 15.8753 3.42342 16.0935 3.38001C16.3117 3.33661 16.5379 3.35889 16.7435 3.44403C16.9491 3.52918 17.1248 3.67338 17.2484 3.85838C17.372 4.04339 17.438 4.26089 17.438 4.4834C17.438 4.78177 17.3195 5.06792 17.1085 5.27889C16.8975 5.48987 16.6114 5.6084 16.313 5.6084ZM13.688 10.1084C13.688 10.7017 13.512 11.2818 13.1824 11.7751C12.8528 12.2685 12.3842 12.653 11.836 12.88C11.2879 13.1071 10.6847 13.1665 10.1027 13.0508C9.52077 12.935 8.98623 12.6493 8.56667 12.2297C8.14711 11.8102 7.86139 11.2756 7.74563 10.6937C7.62988 10.1117 7.68929 9.50853 7.91635 8.96035C8.14341 8.41217 8.52793 7.94363 9.02128 7.61399C9.51463 7.28435 10.0946 7.1084 10.688 7.1084C11.4836 7.1084 12.2467 7.42447 12.8093 7.98708C13.3719 8.54969 13.688 9.31275 13.688 10.1084Z" fill="#EF9516"/>
</svg>
