<?xml version="1.0" encoding="utf-8"?>
<!-- Generator: Adobe Illustrator 24.2.3, SVG Export Plug-In . SVG Version: 6.00 Build 0)  -->
<svg version="1.1" id="Layer_1" xmlns="http://www.w3.org/2000/svg" xmlns:xlink="http://www.w3.org/1999/xlink" x="0px" y="0px"
	 viewBox="0 0 215 55" style="enable-background:new 0 0 215 55;" xml:space="preserve">
<style type="text/css">
	.st0{fill:#FFFFFF;}
	.st1{fill:#2B50F1;}
	.st2{fill:#FF4E20;}
</style>
<g>
	<g>
		<path class="st1" d="M42.75,42.61c-0.29,0-0.53-0.09-0.72-0.28c-0.19-0.19-0.28-0.42-0.28-0.72v-4.46c0-0.29,0.09-0.53,0.28-0.72
			c0.19-0.19,0.42-0.28,0.72-0.28h4.46c0.29,0,0.53,0.09,0.72,0.28c0.19,0.19,0.28,0.42,0.28,0.72v4.46c0,0.29-0.09,0.53-0.28,0.72
			c-0.19,0.19-0.43,0.28-0.72,0.28H42.75z"/>
	</g>
	<path class="st1" d="M54.31,50.18c-0.29,0-0.53-0.09-0.72-0.28c-0.19-0.19-0.28-0.43-0.28-0.72v-26.3c0-0.29,0.09-0.53,0.28-0.72
		c0.19-0.19,0.42-0.28,0.72-0.28h3.79c0.29,0,0.53,0.09,0.72,0.28c0.19,0.19,0.28,0.43,0.28,0.72v1.51
		c0.64-0.85,1.46-1.55,2.47-2.09c1.01-0.54,2.27-0.82,3.79-0.82c1.38,0,2.58,0.22,3.61,0.66c1.02,0.44,1.89,1.06,2.59,1.87
		c0.7,0.81,1.25,1.79,1.63,2.93c0.38,1.14,0.6,2.43,0.66,3.86c0.03,0.51,0.04,0.98,0.04,1.43c0,0.45-0.01,0.94-0.04,1.47
		c-0.03,1.35-0.23,2.6-0.62,3.75c-0.38,1.14-0.94,2.13-1.65,2.95c-0.72,0.82-1.59,1.46-2.61,1.91C67.93,42.78,66.73,43,65.35,43
		c-1.35,0-2.53-0.25-3.53-0.74c-1-0.49-1.81-1.16-2.45-2.01v8.92c0,0.29-0.09,0.53-0.28,0.72c-0.19,0.19-0.41,0.28-0.68,0.28H54.31z
		 M63.56,38.22c1.01,0,1.81-0.22,2.39-0.66c0.58-0.44,1-1.02,1.26-1.73c0.25-0.72,0.4-1.5,0.46-2.35c0.05-0.82,0.05-1.65,0-2.47
		c-0.05-0.85-0.21-1.63-0.46-2.35c-0.25-0.72-0.67-1.29-1.26-1.73c-0.58-0.44-1.38-0.66-2.39-0.66c-0.98,0-1.78,0.23-2.39,0.68
		c-0.61,0.45-1.05,1.02-1.32,1.71c-0.27,0.69-0.42,1.43-0.48,2.23c-0.03,0.48-0.04,0.97-0.04,1.47c0,0.51,0.01,1.01,0.04,1.51
		c0.03,0.74,0.19,1.44,0.5,2.09c0.31,0.65,0.76,1.19,1.35,1.61C61.82,38.01,62.6,38.22,63.56,38.22z"/>
	<path class="st1" d="M83.61,43c-1.41,0-2.67-0.27-3.79-0.82c-1.12-0.54-2.01-1.28-2.67-2.21c-0.66-0.93-1-1.97-1-3.11
		c0-1.89,0.76-3.37,2.29-4.46c1.53-1.09,3.54-1.83,6.04-2.23l5.22-0.76V28.7c0-1.04-0.24-1.83-0.72-2.39
		c-0.48-0.56-1.32-0.84-2.51-0.84c-0.88,0-1.58,0.17-2.11,0.52c-0.53,0.35-0.94,0.8-1.23,1.35c-0.21,0.35-0.52,0.52-0.92,0.52h-3.79
		c-0.29,0-0.52-0.09-0.68-0.26c-0.16-0.17-0.23-0.38-0.2-0.62c0-0.45,0.17-0.98,0.52-1.59c0.34-0.61,0.88-1.22,1.59-1.81
		s1.63-1.1,2.75-1.49c1.12-0.4,2.48-0.6,4.1-0.6c1.67,0,3.11,0.2,4.3,0.6c1.2,0.4,2.15,0.96,2.87,1.67s1.25,1.55,1.59,2.49
		c0.35,0.94,0.52,1.96,0.52,3.05v12.31c0,0.29-0.09,0.53-0.28,0.72c-0.19,0.19-0.43,0.28-0.72,0.28h-3.9
		c-0.27,0-0.49-0.09-0.68-0.28c-0.19-0.19-0.28-0.42-0.28-0.72v-1.47c-0.35,0.51-0.81,0.98-1.39,1.41
		c-0.58,0.44-1.28,0.79-2.09,1.06C85.65,42.87,84.7,43,83.61,43z M85.2,38.86c0.88,0,1.66-0.19,2.35-0.56
		c0.69-0.37,1.23-0.94,1.63-1.71c0.4-0.77,0.6-1.74,0.6-2.91V33l-3.71,0.6c-1.43,0.24-2.48,0.6-3.15,1.08c-0.66,0.48-1,1.06-1,1.75
		c0,0.5,0.15,0.94,0.46,1.31c0.31,0.37,0.71,0.65,1.22,0.84C84.11,38.77,84.64,38.86,85.2,38.86z"/>
	<path class="st1" d="M115,21.89v-6.57c0-0.29,0.1-0.53,0.3-0.72c0.2-0.19,0.43-0.28,0.7-0.28h3.9c0.29,0,0.53,0.09,0.72,0.28
		c0.19,0.19,0.28,0.43,0.28,0.72v6.57h4.98c0.27,0,0.49,0.09,0.68,0.28c0.19,0.19,0.28,0.43,0.28,0.72v2.71
		c0,0.29-0.09,0.53-0.28,0.72c-0.19,0.19-0.41,0.28-0.68,0.28h-4.98v7.89c0,1.01,0.18,1.8,0.54,2.37c0.36,0.57,0.99,0.86,1.89,0.86
		h2.91c0.27,0,0.49,0.09,0.68,0.28c0.19,0.19,0.28,0.41,0.28,0.68v2.95c0,0.29-0.09,0.53-0.28,0.72c-0.19,0.19-0.41,0.28-0.68,0.28
		h-3.47c-1.65,0-3.05-0.27-4.22-0.82c-1.17-0.54-2.05-1.39-2.65-2.53c-0.6-1.14-0.9-2.58-0.9-4.3v-8.37V21.89z"/>
	<path class="st1" d="M131.08,42.61c-0.27,0-0.49-0.09-0.68-0.28c-0.19-0.19-0.28-0.42-0.28-0.72V22.88c0-0.29,0.09-0.53,0.28-0.72
		c0.19-0.19,0.41-0.28,0.68-0.28h3.9c0.29,0,0.53,0.09,0.72,0.28c0.19,0.19,0.28,0.43,0.28,0.72v1.55c0.69-0.85,1.58-1.55,2.67-2.11
		c1.09-0.56,2.42-0.84,3.98-0.84c1.57,0,2.94,0.35,4.12,1.06c1.18,0.7,2.11,1.73,2.79,3.07c0.68,1.34,1.02,2.97,1.02,4.88v11.12
		c0,0.29-0.1,0.53-0.3,0.72c-0.2,0.19-0.43,0.28-0.7,0.28h-4.22c-0.29,0-0.53-0.09-0.72-0.28c-0.19-0.19-0.28-0.42-0.28-0.72V30.73
		c0-1.41-0.34-2.5-1.02-3.29c-0.68-0.78-1.67-1.17-2.97-1.17c-1.25,0-2.24,0.39-2.99,1.17c-0.74,0.78-1.12,1.88-1.12,3.29v10.88
		c0,0.29-0.09,0.53-0.28,0.72c-0.19,0.19-0.41,0.28-0.68,0.28H131.08z"/>
	<path class="st1" d="M163.39,43c-3.05,0-5.48-0.85-7.27-2.55c-1.79-1.7-2.74-4.17-2.85-7.41c0-0.21,0-0.5,0-0.86
		c0-0.36,0-0.64,0-0.86c0.11-2.05,0.57-3.81,1.39-5.28c0.82-1.47,1.98-2.6,3.47-3.39c1.49-0.78,3.23-1.18,5.22-1.18
		c2.23,0,4.1,0.46,5.6,1.37c1.5,0.92,2.63,2.17,3.39,3.75c0.76,1.58,1.14,3.39,1.14,5.44v0.92c0,0.27-0.1,0.49-0.3,0.68
		c-0.2,0.19-0.43,0.28-0.7,0.28h-13.03c0,0.03,0,0.07,0,0.14c0,0.07,0,0.13,0,0.18c0.03,0.85,0.19,1.63,0.5,2.33
		c0.31,0.7,0.74,1.27,1.31,1.69c0.57,0.43,1.26,0.64,2.05,0.64c0.66,0,1.21-0.09,1.63-0.28c0.42-0.19,0.78-0.41,1.06-0.68
		c0.28-0.26,0.48-0.49,0.62-0.68c0.24-0.26,0.43-0.43,0.58-0.5c0.15-0.07,0.38-0.1,0.7-0.1h4.14c0.27,0,0.48,0.07,0.66,0.22
		c0.17,0.15,0.25,0.35,0.22,0.62c-0.03,0.43-0.25,0.95-0.66,1.57c-0.41,0.62-1.02,1.24-1.81,1.83c-0.8,0.6-1.79,1.1-2.97,1.49
		C166.29,42.8,164.93,43,163.39,43z M159.44,30.29h7.81v-0.08c0-0.96-0.15-1.79-0.46-2.49c-0.31-0.7-0.75-1.26-1.33-1.65
		c-0.58-0.4-1.29-0.6-2.11-0.6c-0.82,0-1.53,0.2-2.11,0.6c-0.58,0.4-1.03,0.95-1.33,1.65c-0.31,0.7-0.46,1.53-0.46,2.49V30.29z"/>
	<path class="st1" d="M177.38,42.61c-0.27,0-0.49-0.09-0.68-0.28c-0.19-0.19-0.28-0.42-0.28-0.72V22.88c0-0.27,0.09-0.5,0.28-0.7
		c0.19-0.2,0.41-0.3,0.68-0.3h3.9c0.27,0,0.5,0.1,0.7,0.3c0.2,0.2,0.3,0.43,0.3,0.7v1.59c0.66-0.82,1.48-1.46,2.45-1.91
		c0.97-0.45,2.09-0.68,3.37-0.68h0.96c0.27,0,0.49,0.09,0.68,0.28c0.19,0.19,0.28,0.43,0.28,0.72v3.43c0,0.29-0.09,0.53-0.28,0.72
		c-0.19,0.19-0.41,0.28-0.68,0.28h-2.75c-1.17,0-2.08,0.33-2.75,0.98c-0.66,0.65-1,1.57-1,2.77v10.56c0,0.29-0.09,0.53-0.28,0.72
		c-0.19,0.19-0.43,0.28-0.72,0.28H177.38z"/>
	<path class="st1" d="M99.96,42.61c-0.27,0-0.49-0.09-0.68-0.28c-0.19-0.19-0.28-0.42-0.28-0.72V22.88c0-0.27,0.09-0.5,0.28-0.7
		c0.19-0.2,0.41-0.3,0.68-0.3h3.9c0.27,0,0.5,0.1,0.7,0.3c0.2,0.2,0.3,0.43,0.3,0.7v1.59c0.66-0.82,1.48-1.46,2.45-1.91
		c0.97-0.45,2.09-0.68,3.37-0.68h0.96c0.27,0,0.49,0.09,0.68,0.28c0.19,0.19,0.28,0.43,0.28,0.72v3.43c0,0.29-0.09,0.53-0.28,0.72
		c-0.19,0.19-0.41,0.28-0.68,0.28h-2.75c-1.17,0-2.08,0.33-2.75,0.98c-0.66,0.65-1,1.57-1,2.77v10.56c0,0.29-0.09,0.53-0.28,0.72
		c-0.19,0.19-0.43,0.28-0.72,0.28H99.96z"/>
	<path class="st1" d="M200.59,43c-1.65,0-3.06-0.19-4.24-0.58c-1.18-0.38-2.14-0.86-2.87-1.41s-1.27-1.12-1.63-1.69
		c-0.36-0.57-0.55-1.06-0.58-1.45c-0.03-0.29,0.07-0.53,0.28-0.72c0.21-0.19,0.43-0.28,0.64-0.28h3.86c0.08,0,0.16,0.01,0.24,0.04
		c0.08,0.03,0.16,0.09,0.24,0.2c0.35,0.24,0.7,0.51,1.08,0.82c0.37,0.31,0.8,0.56,1.3,0.78c0.49,0.21,1.11,0.32,1.85,0.32
		c0.88,0,1.62-0.18,2.23-0.54c0.61-0.36,0.92-0.87,0.92-1.53c0-0.48-0.14-0.88-0.42-1.2c-0.28-0.32-0.8-0.61-1.57-0.88
		c-0.77-0.27-1.91-0.56-3.43-0.88c-1.43-0.32-2.66-0.74-3.67-1.27c-1.01-0.53-1.77-1.2-2.27-2.01c-0.51-0.81-0.76-1.79-0.76-2.93
		c0-1.04,0.32-2.03,0.98-2.99c0.65-0.96,1.61-1.75,2.89-2.37c1.27-0.62,2.87-0.94,4.78-0.94c1.46,0,2.74,0.18,3.84,0.54
		c1.1,0.36,2.02,0.81,2.77,1.35c0.74,0.54,1.31,1.1,1.69,1.67c0.38,0.57,0.59,1.07,0.62,1.49c0.03,0.27-0.05,0.49-0.24,0.68
		c-0.19,0.19-0.4,0.28-0.64,0.28h-3.55c-0.13,0-0.25-0.02-0.36-0.06c-0.11-0.04-0.2-0.1-0.28-0.18c-0.32-0.21-0.64-0.46-0.98-0.74
		c-0.33-0.28-0.72-0.52-1.18-0.74c-0.45-0.21-1.04-0.32-1.75-0.32c-0.88,0-1.55,0.19-2.01,0.58c-0.46,0.39-0.7,0.87-0.7,1.45
		c0,0.37,0.12,0.72,0.36,1.04c0.24,0.32,0.73,0.61,1.47,0.88c0.74,0.27,1.87,0.54,3.39,0.84c1.81,0.32,3.24,0.8,4.3,1.43
		c1.06,0.64,1.83,1.37,2.29,2.21c0.46,0.84,0.7,1.73,0.7,2.69c0,1.25-0.37,2.36-1.12,3.33c-0.74,0.97-1.83,1.73-3.25,2.27
		C204.41,42.73,202.66,43,200.59,43z"/>
	<path class="st2" d="M49.22,8c-0.28-0.43-0.75-0.68-1.26-0.68H35.51c-0.6,0-1.15,0.36-1.39,0.91L20.31,40.24
		c-0.2,0.47-0.15,1,0.13,1.43s0.75,0.68,1.26,0.68h12.45c0.6,0,1.15-0.36,1.39-0.91L49.35,9.43C49.55,8.97,49.5,8.43,49.22,8z"/>
	<path class="st1" d="M32.76,41.49L21.29,17.17l0,0l-0.61-1.29c-0.25-0.53-0.78-0.87-1.37-0.87H9.73H6.05c-0.52,0-1,0.26-1.28,0.7
		c-0.28,0.44-0.31,0.99-0.09,1.46l11.47,24.31c0.25,0.53,0.78,0.87,1.37,0.87h3.69h9.58h3.35C33.54,42.35,33.01,42.02,32.76,41.49z"
		/>
</g>
</svg>
