<svg width="127" height="41" viewBox="0 0 127 41" fill="none" xmlns="http://www.w3.org/2000/svg">
<g clip-path="url(#clip0_1_1241)">
<path d="M61.4779 31.1188H53.5779L54.9683 23.2673H62.8683L61.4779 31.1188Z" fill="#FF7D00"/>
<path d="M14.0779 15.802L13.3827 20.0495H17.9331L17.3643 23.203C17.3011 23.7178 16.9219 25.4555 16.4795 25.8416C16.0371 26.2277 15.5315 26.2277 15.0891 26.2277H12.6875C11.3603 26.2277 10.2227 25.906 9.59069 24.4901C8.95869 23.0099 9.46429 20.0495 9.65389 18.698C9.90669 17.2822 10.3491 14.8367 11.4235 13.4208C12.4979 12.0693 14.0147 11.3614 16.0371 11.3614H25.0115L28.1715 6.21289H13.3827C12.7507 6.21289 9.46429 6.27725 6.93629 7.95051C3.33389 10.2673 2.25949 14.901 1.56429 18.8267C0.99549 22.1089 0.489893 26.6139 2.70189 29.0594C4.02909 30.4753 6.49389 31.1832 8.51629 31.1832H20.0819C21.0931 31.1832 22.1043 30.8614 22.8627 30.3466C23.3683 29.9604 24.2531 29.1238 24.5691 27.4505L25.8331 20.0495L25.8963 19.599L26.3387 16.8961L26.5283 15.8664H14.0779V15.802Z" fill="#FF7D00"/>
<path d="M40.7483 15.802L40.0531 20.0495H44.6035L44.0347 23.203C43.9715 23.7178 43.5923 25.4555 43.1499 25.8416C42.7075 26.2277 42.2019 26.2277 41.7595 26.2277H39.3579C38.0307 26.2277 36.8931 25.906 36.2611 24.4901C35.6291 23.0099 36.1347 20.0495 36.3243 18.698C36.5771 17.2822 37.0195 14.8367 38.0939 13.4208C39.1683 12.0693 40.6851 11.3614 42.7075 11.3614H51.6819L54.8419 6.21289H40.0531C39.4211 6.21289 36.1347 6.27725 33.6067 7.95051C30.0043 10.2673 28.9299 14.901 28.2347 18.8267C27.6659 22.1089 27.1603 26.6139 29.3723 29.0594C30.6995 30.4753 33.1643 31.1832 35.1867 31.1832H46.7523C47.7635 31.1832 48.7747 30.8614 49.5331 30.3466C50.0387 29.9604 50.9235 29.1238 51.2395 27.4505L52.5035 20.0495L52.5667 19.599L53.0091 16.8961L53.1987 15.8664H40.7483V15.802Z" fill="#FF7D00"/>
<path d="M84.0404 31.1188C83.0292 31.1188 82.018 31.0545 81.1964 30.2822C80.2484 29.3168 80.438 28.3515 80.6276 27.1287L83.598 10.0743C83.7876 9.10891 84.1036 8.0792 85.1148 7.24257C86.1892 6.40593 87.39 6.27722 88.2748 6.27722H104.138L100.978 11.4257H92.8884C92.446 11.4257 91.9404 11.5545 91.6244 11.8119C91.182 12.1337 91.0556 12.7129 91.0556 13.0346L90.55 15.8663H100.283L99.5244 20.1139H89.7916L88.97 25.0049C88.9068 25.5198 89.0332 25.7772 89.1596 25.9059C89.4756 26.2921 90.1076 26.2277 90.6132 26.2277H101.926L101.041 31.1832H84.0404V31.1188Z" fill="white"/>
<path d="M107.298 31.1188L110.711 11.3614H104.833L105.718 6.27722H126.511L123.351 11.3614H118.611L115.198 31.1188H107.298Z" fill="white"/>
<path d="M78.4788 17.0891C79.806 15.8663 80.122 14.5792 80.3748 13.2277C80.6276 11.6188 80.8804 9.30197 79.7428 7.88613C78.6684 6.47029 76.5828 6.27722 74.8764 6.27722H57.8124L57.1172 10.2673L55.4108 19.9851H63.3108H69.4412H69.6308C70.2628 19.9851 70.958 20.0495 71.3372 20.6931C71.4636 20.9505 71.5268 21.3366 71.4636 21.7228L71.0212 24.2327C70.958 24.7475 70.5788 25.3911 70.326 25.7129C70.1364 25.9059 69.6308 26.2277 68.114 26.2277H65.8388L62.8052 31.1832H70.8948C72.9804 31.1832 74.8132 31.1832 76.7092 29.4455C78.4788 27.8366 78.7948 25.8416 79.1108 24.2327C79.3636 22.6881 79.6164 21.0792 78.542 19.7921C78.0364 19.2129 77.0884 18.6337 75.8876 18.5049V18.3762C76.8988 18.2475 77.6572 17.8614 78.4788 17.0891ZM72.6012 12.9059L72.4116 13.9356V14.0644V14.1287C72.3484 14.4505 72.222 14.8366 71.9692 15.1584C71.4636 15.802 70.642 15.802 69.9468 15.802H64.0692L64.2588 14.7723L64.4484 13.8069C64.4484 13.6782 64.4484 13.6139 64.5116 13.5495L64.638 12.7772C64.7012 12.3911 64.7012 12.005 65.1436 11.6832C65.5228 11.4257 65.8388 11.4257 66.218 11.4257H70.7052C71.2108 11.4257 71.9692 11.4257 72.4116 11.9406C72.6012 12.0693 72.7276 12.4554 72.6012 12.9059Z" fill="white"/>
</g>
<defs>
<clipPath id="clip0_1_1241">
<rect width="126" height="41" fill="white" transform="translate(0.942749)"/>
</clipPath>
</defs>
</svg>
