<svg width="107" height="62" viewBox="0 0 107 62" fill="none" xmlns="http://www.w3.org/2000/svg">
<g clip-path="url(#clip0_1_1216)">
<path d="M21.2081 41.5005C21.2081 41.8468 20.2517 42.1301 18.3392 42.3504C16.4268 42.5393 14.4985 42.6337 12.5547 42.6337C10.6422 42.6337 9.4194 42.555 8.88641 42.3976C8.35341 42.2088 8.08691 41.9097 8.08691 41.5005V12.1309C8.08691 11.4384 8.99615 10.7616 10.8146 10.1006C12.6331 9.40803 14.671 9.06177 16.9284 9.06177C18.935 9.06177 20.2517 9.48673 20.8788 10.3366C21.0983 10.6514 21.2081 10.9662 21.2081 11.281V41.5005Z" fill="white"/>
<path d="M48.5497 42.3033C47.2957 42.5866 46.0101 42.7755 44.6934 42.8698C43.4079 42.9958 42.1381 43.0588 40.884 43.0588C39.6612 43.0588 38.705 43.0272 38.0152 42.9643C37.3567 42.9013 36.4789 42.7439 35.3815 42.4921C34.2842 42.2403 33.2809 41.8941 32.3716 41.4533C31.4625 41.0127 30.4905 40.3673 29.4559 39.5174C28.4526 38.6674 27.606 37.6601 26.9163 36.4954C25.3173 33.7882 24.5178 30.2942 24.5178 26.013C24.5178 23.1485 24.9568 20.6144 25.8347 18.411C26.7438 16.2075 27.8255 14.5077 29.0797 13.3114C30.3651 12.1152 31.823 11.1551 33.4534 10.4311C36.0869 9.23493 38.7363 8.63684 41.4013 8.63684C45.2263 8.63684 47.9697 8.95163 49.6314 9.5812C50.3839 9.8645 51.0579 10.3052 51.6537 10.9033C52.2494 11.5014 52.5472 12.3671 52.5472 13.5003C52.5472 14.6336 52.265 16.0658 51.7007 17.7971C51.1676 19.5285 50.3839 20.3942 49.3492 20.3942C49.0358 20.3942 47.8757 20.1422 45.8691 19.6387C43.8624 19.135 42.4987 18.8832 41.7776 18.8832C40.6802 18.8832 39.7396 19.4969 38.9558 20.7246C38.2033 21.9523 37.827 23.6993 37.827 25.9658C37.827 28.2323 38.1563 29.995 38.8146 31.2542C39.5044 32.5134 40.398 33.1429 41.4954 33.1429C42.2792 33.1429 43.69 32.8282 45.728 32.1986C47.7972 31.5376 49.0043 31.207 49.3492 31.207C50.3212 31.207 51.0737 32.1042 51.6066 33.8984C52.171 35.6927 52.4532 37.1407 52.4532 38.2425C52.4532 39.3443 52.1083 40.2256 51.4186 40.8867C50.7601 41.5163 49.8039 41.9884 48.5497 42.3033Z" fill="white"/>
<path d="M79.6949 42.6337H59.7545C58.2182 42.6337 57.1836 42.5235 56.6506 42.3033C56.1175 42.0829 55.8511 41.7366 55.8511 41.2645V11.3755C55.8511 10.557 56.2116 9.97466 56.9327 9.6284C57.6851 9.28213 59.0176 9.10901 60.9302 9.10901H79.8359C80.4943 9.10901 80.8235 10.2108 80.8235 12.4143C80.8235 14.5863 80.6825 16.2547 80.4003 17.4194C80.1181 18.5526 79.7419 19.1193 79.2715 19.1193C77.2336 19.1193 73.8005 18.9146 68.9722 18.5054V21.6689C73.6124 21.4801 76.6379 21.3857 78.0488 21.3857C78.8953 21.3857 79.3186 22.3773 79.3186 24.3604C79.3186 26.3436 79.1461 27.8546 78.8012 28.8933C78.4878 29.9007 78.0488 30.4043 77.4845 30.4043L68.9722 30.2154V33.2374C74.4276 32.8282 78.1899 32.6235 80.2591 32.6235C80.9176 32.6235 81.2467 33.7252 81.2467 35.9288C81.2467 38.1323 81.1057 39.8007 80.8235 40.9339C80.5413 42.0672 80.1651 42.6337 79.6949 42.6337Z" fill="white"/>
<path fill-rule="evenodd" clip-rule="evenodd" d="M19.233 50.1689C19.1909 50.1737 19.1487 50.1782 19.1066 50.1824C16.9362 50.3967 14.7519 50.5035 12.5547 50.5035C11.5126 50.5035 10.5453 50.4826 9.70187 50.4283C9.0331 50.3853 7.84155 50.2921 6.6748 49.9476C6.54134 49.9082 6.40894 49.8652 6.27776 49.8187C5.25396 49.456 3.74606 48.7387 2.4455 47.2792C0.998546 45.6556 0.248779 43.5991 0.248779 41.5005V12.131C0.248779 8.03979 2.92986 5.65382 4.10079 4.78222C5.42804 3.79427 6.90593 3.15497 8.09166 2.72096C10.9118 1.65587 13.8919 1.19217 16.9284 1.19217C19.2221 1.19217 23.7526 1.53125 26.7828 5.15046C27.88 4.4234 29.038 3.78887 30.2518 3.24781C33.8049 1.63854 37.541 0.767212 41.4012 0.767212C45.3316 0.767212 49.3047 1.04829 52.3904 2.21525C52.7205 2.3397 53.0429 2.47622 53.3576 2.62421C53.4221 2.59159 53.4865 2.55985 53.5508 2.52896C53.5893 2.51046 53.6281 2.49228 53.6668 2.47442C56.1157 1.34753 58.9931 1.23939 60.9302 1.23939H79.8358C82.505 1.23939 84.6842 2.47842 86.094 4.0511C87.3018 5.39845 87.8345 6.83832 88.0841 7.67403C88.5858 9.35283 88.6617 11.1116 88.6617 12.4143C88.6617 14.7946 88.5196 17.2018 88.0163 19.2794C88.0124 19.2956 88.0084 19.3119 88.0044 19.3281C87.8328 20.017 87.5439 21.0103 87.0135 22.0536C87.1326 22.9319 87.1568 23.7293 87.1568 24.3605C87.1568 25.5576 87.1078 26.8267 86.9511 28.0892C87.8575 29.2738 88.2899 30.4605 88.5075 31.1886C89.009 32.8674 89.0849 34.6261 89.0849 35.9289C89.0849 38.315 88.9469 40.7571 88.4276 42.8427C88.2014 43.7514 87.7708 45.1896 86.8514 46.5742C85.901 48.0054 83.5906 50.5035 79.6947 50.5035H59.7543C58.8268 50.5035 57.8872 50.4714 56.9995 50.377C56.2344 50.2954 54.9661 50.1176 53.6661 49.5802C53.3925 49.4671 53.0995 49.3316 52.7954 49.1694C51.9949 49.5013 51.2017 49.7494 50.4508 49.938C50.3908 49.9531 50.3306 49.9673 50.2703 49.981C48.6569 50.3454 47.0171 50.5879 45.3551 50.7119C43.8576 50.8556 42.3668 50.9284 40.8839 50.9284C39.5737 50.9284 38.3439 50.8965 37.3055 50.8016L37.272 50.7985C36.1229 50.6887 34.8683 50.447 33.635 50.164C32.0285 49.7952 30.4599 49.2655 28.9641 48.5403C28.1706 48.1559 27.406 47.7115 26.6707 47.2252C26.1191 47.7794 25.6107 48.1425 25.327 48.3294C24.2593 49.0324 23.2244 49.368 22.7093 49.5206C21.5655 49.8595 20.3058 50.0452 19.233 50.1689ZM20.987 41.7744C20.6034 41.9993 19.7209 42.1913 18.3394 42.3505C16.4268 42.5394 14.4987 42.6338 12.5547 42.6338C10.6422 42.6338 9.41947 42.5551 8.88647 42.3978C8.35348 42.2088 8.08698 41.9098 8.08698 41.5005V12.131C8.08698 11.4385 8.99621 10.7617 10.8147 10.1006C12.6331 9.4081 14.6711 9.06184 16.9284 9.06184C18.935 9.06184 20.2519 9.4868 20.879 10.3367C20.963 10.4573 21.031 10.5779 21.0828 10.6984C21.1663 10.8927 21.2081 11.0869 21.2081 11.2811V41.5005C21.2081 41.5967 21.1344 41.688 20.987 41.7744ZM29.0463 39.1536C29.1798 39.2779 29.3163 39.3992 29.4559 39.5174C30.4905 40.3674 31.4624 41.0127 32.3717 41.4533C33.2808 41.8941 34.2842 42.2403 35.3816 42.4921C36.4789 42.744 37.3568 42.9013 38.0152 42.9643C38.7049 43.0272 39.6611 43.0588 40.8839 43.0588C42.138 43.0588 43.4078 42.9958 44.6933 42.8699C45.8479 42.7871 46.9784 42.6316 48.0848 42.4037C48.2403 42.3717 48.3951 42.3382 48.5497 42.3033C49.539 42.055 50.343 41.7087 50.9615 41.2645C51.1271 41.1456 51.2795 41.0197 51.4185 40.8868C52.1082 40.2256 52.4531 39.3443 52.4531 38.2425C52.4531 37.1407 52.1709 35.6928 51.6066 33.8985C51.0736 32.1042 50.3211 31.2071 49.3491 31.2071C49.1608 31.2071 48.7153 31.3056 48.0128 31.5028C47.4287 31.6666 46.6672 31.8986 45.728 32.1987C43.69 32.8282 42.2791 33.143 41.4953 33.143C40.398 33.143 39.5045 32.5134 38.8147 31.2542C38.1562 29.9952 37.8271 28.2323 37.8271 25.9659C37.8271 23.6994 38.2032 21.9524 38.9557 20.7247C39.7396 19.4971 40.6802 18.8832 41.7775 18.8832C42.4986 18.8832 43.8625 19.135 45.869 19.6387C46.7449 19.8585 47.4595 20.0304 48.0128 20.1543C48.7271 20.3142 49.1726 20.3942 49.3491 20.3942C50.3838 20.3942 51.1677 19.5285 51.7007 17.7971C52.265 16.0659 52.5471 14.6335 52.5471 13.5003C52.5471 12.6366 52.3741 11.9284 52.0281 11.3755C51.9202 11.203 51.7953 11.0456 51.6536 10.9033C51.0579 10.3052 50.3838 9.86454 49.6313 9.58123C49.2324 9.43009 48.7712 9.2971 48.2477 9.18224C46.5902 8.81867 44.3081 8.63687 41.4012 8.63687C38.7362 8.63687 36.087 9.23496 33.4533 10.4312C31.823 11.1552 30.3651 12.1153 29.0796 13.3114C29.0685 13.322 29.0574 13.3327 29.0463 13.3434C27.8063 14.5378 26.7357 16.2271 25.8346 18.411C24.9567 20.6145 24.5177 23.1485 24.5177 26.013C24.5177 30.2942 25.3173 33.7883 26.9163 36.4954C27.51 37.4982 28.2201 38.3842 29.0463 39.1536ZM55.851 41.2645C55.851 41.7366 56.1175 42.0829 56.6505 42.3033C57.1511 42.5103 58.0943 42.62 59.48 42.6325C59.5696 42.6335 59.6611 42.6338 59.7543 42.6338H79.6947C80.165 42.6338 80.5413 42.0672 80.8235 40.9339C81.0375 40.0743 81.1703 38.9066 81.2221 37.4311C81.2385 36.9615 81.2467 36.4608 81.2467 35.9289C81.2467 33.7254 80.9175 32.6236 80.2591 32.6236C79.5391 32.6236 78.6142 32.6484 77.4844 32.6979C77.4676 32.6986 77.4508 32.6994 77.4339 32.7001C77.2325 32.709 77.0246 32.7188 76.8103 32.7293C74.7774 32.8286 72.1646 32.9979 68.9721 33.2374V30.2158L77.4844 30.4044C78.0488 30.4044 78.4876 29.9007 78.8012 28.8934C78.973 28.3758 79.1021 27.7409 79.1883 26.9888C79.2229 26.6866 79.2507 26.3655 79.2715 26.0255C79.2957 25.6306 79.3106 25.2099 79.3161 24.7638C79.3177 24.6316 79.3186 24.4971 79.3186 24.3605C79.3186 23.9788 79.3028 23.6338 79.2715 23.3257C79.1399 22.0323 78.7323 21.3857 78.0488 21.3857C77.7224 21.3857 77.3095 21.3908 76.8103 21.4009C75.1516 21.4345 72.5388 21.5238 68.9721 21.6691V18.5054C72.2137 18.7801 74.8264 18.9627 76.8103 19.0529C77.2547 19.0732 77.6674 19.0888 78.0488 19.0998C78.5007 19.1128 78.9083 19.1193 79.2715 19.1193C79.7418 19.1193 80.118 18.5526 80.4002 17.4194C80.6114 16.5475 80.7436 15.3933 80.7968 13.957C80.8146 13.4746 80.8235 12.9604 80.8235 12.4143C80.8235 10.2108 80.4943 9.10905 79.8358 9.10905H60.9302C60.4613 9.10905 60.0274 9.11945 59.6283 9.14025C58.3992 9.20433 57.5007 9.36706 56.9327 9.62845C56.2115 9.97471 55.851 10.5571 55.851 11.3755V41.2645Z" fill="url(#paint0_linear_1_1216)"/>
<path d="M37.8411 35.1625C39.3262 34.7093 40.9235 34.2373 42.4669 34.7051C43.5526 34.8889 44.5031 35.5091 45.2373 36.3151C46.7619 37.777 47.7124 39.9363 47.3796 42.0684C47.2132 42.745 47.5294 43.5365 48.195 43.7975C48.8023 43.879 49.4658 43.9479 50.0378 43.6722C50.9092 43.265 51.8473 42.9977 52.802 42.887C53.6298 42.8326 54.4368 43.0979 55.2127 43.3568C56.2818 42.4234 58.0455 42.5383 58.9669 43.6304C59.6616 44.2694 59.776 45.2425 60.0464 46.0946C60.1879 46.648 60.9034 46.7587 61.3276 46.4934C61.9454 45.8106 62.039 44.8478 62.509 44.0814C63.2703 42.768 64.6035 41.7405 66.1135 41.4962C67.0537 41.2936 68.1311 41.5734 68.8071 42.2751C69.3167 42.9831 69.5205 43.9479 69.275 44.7957C69.1711 45.4472 68.8133 46.0194 68.6574 46.6542C68.6199 47.7255 68.6323 48.8156 68.8425 49.8702C69.8637 47.8008 70.9286 45.7375 72.2889 43.8685C73.0356 42.958 72.8088 41.6486 73.4662 40.6901C74.0902 39.5938 75.3755 38.9109 76.6277 39.053C78.4976 39.2701 79.9327 41.0117 80.1094 42.8431C80.7563 42.2564 81.7234 42.0475 82.5492 42.3483C83.2107 42.5298 83.6516 43.0979 84.0551 43.6178C85.4195 42.6886 87.2145 41.9911 88.8306 42.674C90.3094 43.2942 91.1664 44.8729 91.3389 46.4183C92.6118 44.5034 94.5441 42.8744 96.8508 42.4609C98.4731 42.0267 100.364 42.4547 101.497 43.7432C102.171 44.5264 102.955 45.2238 103.519 46.1008C104.004 46.8651 103.995 47.8091 104.257 48.6506C104.705 49.2375 105.156 49.9454 104.946 50.7202C104.865 51.5471 104.243 52.136 103.617 52.6017C102.668 55.5671 100.861 58.4009 98.1612 60.0359C95.8545 61.433 92.6722 61.0989 90.7462 59.1902C89.3297 60.3805 87.5223 61.0885 85.6774 61.1678C84.1528 61.0989 82.4952 60.6792 81.5175 59.4094C80.7917 58.5992 80.6357 57.4925 80.4339 56.465C79.8598 57.7535 79.2941 59.0462 78.7346 60.3408C78.4767 60.9757 77.8278 61.4163 77.1414 61.3934C76.376 61.4518 75.7395 60.9422 75.0136 60.8108C73.8467 60.936 72.7278 61.4811 71.5318 61.3663C70.4669 61.2471 69.3666 61.0049 68.5243 60.2969C65.4979 61.9195 61.4482 62.166 58.5946 60.0506C57.2364 61.0947 55.5787 61.7713 53.8545 61.7672C52.6523 61.6585 51.4147 61.3433 50.4933 60.5163C49.0499 61.3683 47.3131 62.0428 45.6284 61.5875C43.875 61.3119 42.4627 59.8647 41.951 58.1983C40.0062 60.5705 36.9051 61.8193 33.8747 61.6877C32.3022 61.5228 30.6841 61.126 29.432 60.1028C26.9922 58.1836 25.9792 54.9197 26.1144 51.8958C26.3412 48.7822 27.3603 45.7249 29.0846 43.123C30.1786 41.4712 31.4016 39.8861 32.8471 38.5267C34.3696 37.2236 35.9338 35.8599 37.8411 35.1625Z" fill="url(#paint1_linear_1_1216)"/>
<path d="M40.0205 36.8082C41.2144 36.5138 42.6038 36.5262 43.6168 37.3135C44.5361 38.0842 45.339 39.0594 45.6988 40.2226C46.0337 41.3063 45.7674 42.4737 45.2828 43.4677C44.794 44.4889 44.3968 45.5519 44.0307 46.6231C43.9101 47.0303 43.4463 47.3144 43.0344 47.1577C42.0132 46.7881 41.41 45.6562 41.4641 44.5974C41.5368 42.8976 42.5622 41.442 42.8368 39.7882C42.8846 39.452 42.8867 39.0029 42.531 38.8318C41.9528 38.6793 41.3725 38.9779 40.8568 39.2118C39.2135 40.0659 37.8012 41.3063 36.5345 42.6449C34.4422 44.8772 32.8053 47.6067 32.198 50.6347C31.8236 52.4954 31.6406 54.521 32.3914 56.3127C32.7783 57.2357 33.6539 58.1087 34.7251 57.9917C36.2913 57.8059 37.5101 56.6427 38.5064 55.5046C39.486 54.356 40.2619 53.0529 40.9566 51.7164C41.1417 51.2173 41.88 51.0085 42.2274 51.4595C42.737 52.1445 42.7578 53.0842 42.5665 53.8882C42.2149 55.2414 41.3517 56.3983 40.3742 57.3652C38.5105 59.2594 35.6174 60.0465 33.0528 59.3804C31.7216 59.0421 30.5673 58.1525 29.8373 56.9935C28.5643 55.0661 28.3667 52.627 28.7516 50.3966C29.417 46.5041 31.6322 43.0271 34.4111 40.2998C36.0167 38.7858 37.8179 37.2948 40.0205 36.8082Z" fill="white"/>
<path d="M75.7226 41.0537C77.5509 40.9032 78.7156 43.714 77.266 44.8939C76.3425 45.5016 75.0945 44.8521 74.6472 43.9417C74.0587 42.931 74.5474 41.3565 75.7226 41.0537Z" fill="white"/>
<path d="M63.8984 45.3013C64.3955 44.3741 65.2795 43.568 66.3444 43.4051C66.7499 43.3258 67.3052 43.4719 67.351 43.9585C67.4612 44.9462 66.5378 45.673 66.6127 46.6524C66.5336 48.9662 66.985 51.2507 67.0994 53.5563C67.1597 54.6965 66.9954 55.8429 66.5961 56.9121C67.5195 56.1185 68.6406 55.3104 68.8922 54.0365C69.7201 51.562 70.9618 49.246 72.2409 46.9802C72.7027 46.266 73.05 45.4328 73.7198 44.8857C74.1191 44.5808 74.5726 44.9567 74.8034 45.2866C75.4732 46.2097 75.4025 47.473 75.0322 48.5005C74.4852 49.9038 73.7364 51.2153 73.0542 52.556C72.3824 53.8632 71.617 55.1893 71.5005 56.6887C71.4902 57.0563 71.4568 57.499 71.7501 57.7746C72.27 57.9541 72.8025 57.6368 73.2185 57.3465C74.2023 56.5675 75.051 55.5463 75.3796 54.3101C76.7607 51.0294 78.5203 47.9221 80.3776 44.894C80.6127 44.5265 80.9517 43.9794 81.4697 44.1777C82.3224 44.8021 82.4181 45.9946 82.3932 46.9719C83.5725 45.8609 84.8683 44.7061 86.4885 44.349C87.647 44.1172 88.5497 45.226 88.7744 46.2535C89.0531 47.2538 88.5206 48.2123 88.0921 49.0811C86.9835 51.3176 85.4298 53.3934 84.941 55.8888C84.8662 56.4569 84.8474 57.2943 85.4838 57.5449C86.0849 57.5845 86.5904 57.1794 87.0189 56.8036C88.1192 55.7698 88.924 54.4688 89.6624 53.1637C90.0347 52.5308 90.0619 51.7749 90.3093 51.0963C90.9811 49.1312 92.0565 47.2621 93.5998 45.8568C94.7625 44.8063 96.3328 44.0525 97.9281 44.2843C99.12 44.4681 99.6961 45.6459 100.528 46.3788C101.508 47.26 101.533 48.6759 101.45 49.8934C101.739 49.9644 102.026 50.0416 102.313 50.1252V50.2714C102.179 50.7809 101.678 50.9835 101.242 51.163C100.628 53.4665 99.4673 55.6696 97.7118 57.2984C96.6593 58.2653 95.2533 59.0129 93.7849 58.7958C92.2437 58.6245 90.9561 57.5114 90.2802 56.1477C89.1613 57.524 87.6429 58.6683 85.8769 59.0046C84.6457 59.1841 83.1523 59.0108 82.3536 57.9417C81.5923 56.8787 81.7338 55.4587 82.079 54.2683C82.7613 51.9691 83.9135 49.8433 85.1594 47.8072C85.4277 47.377 85.6524 46.9175 85.8021 46.431C84.342 47.07 83.1959 48.2249 82.1186 49.3713C79.6934 51.9796 78.3851 55.3627 76.9396 58.564C76.8064 58.8813 76.5465 59.2447 76.1534 59.1528C75.6333 58.9983 75.3546 58.4951 75.051 58.0878C73.6719 59.04 71.8749 59.6289 70.2297 59.0589C69.5183 58.8271 69.0046 58.2298 68.7113 57.5553C66.8643 59.1758 64.2624 59.8106 61.8683 59.3387C60.5288 59.0965 59.3454 58.2757 58.5862 57.1523C57.3154 58.708 55.3498 59.9964 53.2658 59.6038C52.1654 59.443 51.2939 58.5785 51.009 57.5199C50.1209 58.3635 49.1163 59.1299 47.937 59.5016C46.7451 59.8733 45.2891 59.5726 44.5072 58.5472C43.6544 57.4383 43.6128 55.9244 43.8769 54.6025C44.345 52.1947 45.83 50.1544 47.392 48.3334C48.7627 46.8256 50.3892 45.3555 52.4275 44.8961C53.6173 44.6059 54.9734 45.1405 55.4476 46.3204C55.7762 45.7815 56.0092 45.1384 56.525 44.7479C56.9826 44.4513 57.5192 44.8272 57.7334 45.2469C58.4094 46.4582 58.1619 47.9596 57.5795 49.1562C56.4793 51.3844 54.9671 53.41 54.1456 55.7739C53.9292 56.459 53.7296 57.2107 53.923 57.9249C54.0811 58.4011 54.6718 58.2215 54.992 58.0377C56.107 57.3715 56.8328 56.2376 57.5275 55.1684C57.9352 54.6004 57.7023 53.8549 57.9269 53.2221C58.1661 52.4244 58.6736 51.5829 59.5035 51.3197C59.9611 51.2048 60.1211 51.7143 60.2543 52.0401C61.2693 50.4802 62.3051 48.9327 63.2494 47.329C63.6093 46.7046 63.5343 45.9298 63.8984 45.3013ZM98.1694 47.068C98.1423 47.8385 98.3253 48.6196 98.7351 49.2752C99.0118 48.5778 99.2135 47.8343 99.2031 47.0783C99.1969 46.7985 99.0575 46.4769 98.7642 46.3976C98.4003 46.3663 98.2027 46.7631 98.1694 47.068ZM50.5827 49.4423C48.9458 51.4221 47.4482 53.6711 47.0155 56.2543C46.9448 56.8745 46.8304 57.643 47.3484 58.1108C48.6961 57.8602 49.4698 56.5863 50.2269 55.5651C51.3918 53.8235 52.4421 51.9942 53.2388 50.0542C53.5486 49.2335 53.8856 48.3772 53.8253 47.4835C53.844 47.1681 53.5029 46.903 53.2138 47.0951C52.1508 47.6276 51.3646 48.5695 50.5827 49.4423ZM92.6887 54.617C92.6201 55.3145 92.5203 56.1018 92.9072 56.7283C93.2171 57.1815 93.8494 57.0145 94.2403 56.768C95.1743 56.1875 95.8315 55.2644 96.4202 54.354C97.1231 53.1803 97.797 51.9712 98.2006 50.6557C97.144 50.0187 96.2953 49.0226 95.9751 47.8114C94.205 49.6595 93.0653 52.086 92.6887 54.617ZM63.5199 50.4969C62.5984 51.9859 61.6853 53.4789 60.7016 54.9283C60.9823 55.8513 61.3047 56.8265 62.0161 57.5114C62.2884 57.7767 62.8023 57.975 63.0767 57.6033C63.4782 57.0416 63.5302 56.317 63.6155 55.6529C63.7549 53.9363 63.6405 52.2114 63.5199 50.4969Z" fill="white"/>
</g>
<defs>
<linearGradient id="paint0_linear_1_1216" x1="0.248779" y1="0.767212" x2="44.8657" y2="50.7509" gradientUnits="userSpaceOnUse">
<stop stop-color="#17B9FF"/>
<stop offset="1" stop-color="#1769FF"/>
</linearGradient>
<linearGradient id="paint1_linear_1_1216" x1="26.1025" y1="34.5118" x2="46.6302" y2="72.1" gradientUnits="userSpaceOnUse">
<stop stop-color="#17B9FF"/>
<stop offset="1" stop-color="#1769FF"/>
</linearGradient>
<clipPath id="clip0_1_1216">
<rect width="106" height="61" fill="white" transform="translate(0.248779 0.767212)"/>
</clipPath>
</defs>
</svg>
