<svg width="165" height="66" viewBox="0 0 165 66" fill="none" xmlns="http://www.w3.org/2000/svg">
<path d="M143.536 30.1375C143.13 24.3299 148.641 17.0731 148.641 17.0731H113.652C113.22 15.6203 112.968 14.1262 113.069 12.7183C113.069 12.7183 113.412 9.19477 115.436 3.58557C105.67 4.55164 94.6628 5.09459 83.0162 5.09459C71.3697 5.09459 60.3626 4.55164 50.5969 3.58557C52.6208 9.19102 52.9631 12.7183 52.9631 12.7183C53.0609 14.1262 52.8126 15.6203 52.38 17.0731H17.3914C17.3914 17.0731 22.9025 24.3299 22.4962 30.1375C22.4962 30.1375 21.0366 45.0854 6.45581 62.3848C12.8998 60.4039 21.2322 58.689 30.9415 57.341C34.0901 55.4762 37.0281 53.634 39.7215 51.8441C51.8308 50.0618 66.8066 49.0096 83.0162 49.0096C99.2259 49.0096 114.205 50.0618 126.311 51.8441C129.008 53.634 131.942 55.4762 135.091 57.341C144.804 58.689 153.133 60.4039 159.577 62.3848C144.992 45.0854 143.536 30.1375 143.536 30.1375Z" fill="black"/>
<path d="M64.3764 36.3233C66.3175 34.9266 67.9389 33.1405 68.1947 30.9275C68.1947 30.9275 68.458 28.6846 68.5859 27.5912C69.1916 22.4089 68.142 21.4279 64.9332 21.4241H58.6622C59.0459 22.4276 58.4252 25.5468 57.9964 27.7298C57.9212 28.108 57.8459 28.4862 57.7707 28.8643C57.545 30.0027 57.2252 31.624 56.2923 32.3579C56.9356 33.0432 56.6196 34.7057 56.3751 35.9526C56.2885 36.4019 56.1982 36.8513 56.1117 37.3043C55.5964 39.9367 54.7838 44.093 53.2791 45.6395C55.3744 45.486 57.4735 45.3474 59.5688 45.2239C59.8698 43.3816 60.1707 41.5431 60.4717 39.7083C60.577 39.9629 60.6823 40.2175 60.7839 40.4722C61.4159 42.0074 62.0516 43.5351 62.6836 45.0591C64.9821 44.943 67.2768 44.8457 69.5753 44.7708C68.2285 44.1417 66.0504 39.9067 64.3764 36.3233ZM63.4661 31.0099C63.12 33.2791 62.1156 35.0951 60.9946 36.4955C61.6792 32.328 62.3601 28.1791 63.041 24.049C63.1426 23.4349 63.2441 22.8245 63.8347 22.8208C64.7188 22.8208 64.4705 24.4496 63.9814 27.6437C63.8084 28.7632 63.6391 29.8866 63.4661 31.0099ZM110.09 37.3118C110.609 39.9442 111.425 44.1043 112.934 45.6545C108.45 45.3212 103.962 45.0629 99.4741 44.8794C99.8315 43.5052 99.3462 39.4724 99.0378 36.9187C98.9851 36.4768 98.9324 36.035 98.8798 35.5931C98.7331 34.3799 98.5224 32.7698 97.661 32.0733C98.3682 31.3993 98.1839 29.8267 98.0484 28.7146C97.9995 28.3177 97.9544 27.9207 97.9055 27.5276C97.6497 25.4007 97.2735 22.3977 96.1487 21.4241H107.524C107.333 21.9259 107.393 22.9369 107.551 24.1014C107.713 25.2846 107.98 26.6327 108.198 27.7298C106.133 24.4609 103.097 22.9107 101.63 22.9069C101.931 24.8503 102.235 26.7974 102.536 28.7483C102.709 29.8716 102.961 31.4742 103.864 32.1969C103.18 32.8896 103.439 34.5746 103.631 35.8066C104.003 38.2143 104.376 40.6294 104.748 43.0483C106.464 43.1345 109.266 41.2323 110.094 37.3081L110.09 37.3118ZM120.698 37.1658C122.068 35.8328 122.937 33.9868 122.259 31.5941C122.259 31.5941 121.567 29.1714 121.232 28.0031C119.634 22.4426 118.163 21.4279 114.954 21.4241H108.247C109.462 22.4089 110.143 25.4419 110.617 27.6324C110.711 28.063 110.805 28.4974 110.899 28.928C111.147 30.0738 111.493 31.7026 110.857 32.3916C111.787 33.1255 112.163 34.7956 112.434 36.0574C112.55 36.6004 112.667 37.1396 112.783 37.6825C113.355 40.3411 114.183 44.3514 113.807 45.7181C115.729 45.8642 117.647 46.0252 119.566 46.2012C119.1 44.2578 118.633 42.3257 118.17 40.4048C118.385 40.6893 118.595 40.9702 118.81 41.2547C120.096 42.9735 121.387 44.7184 122.673 46.497C124.964 46.7217 127.251 46.9688 129.535 47.2346C127.91 46.2761 123.903 41.1611 120.702 37.1658H120.698ZM117.35 37.0422C116.289 32.6912 115.229 28.3888 114.172 24.1314C114.014 23.4948 113.856 22.8695 114.446 22.8695C115.281 22.8732 115.718 24.3747 116.485 27.3329C116.835 28.6921 117.185 30.0551 117.535 31.4218C118.144 33.8033 117.896 35.668 117.35 37.0422ZM146.723 54.8134C143.943 54.2855 141.155 53.7912 138.368 53.3344C136.261 51.9601 133.816 50.189 131.709 48.1183C129.648 46.0888 127.929 43.7972 127.187 41.2323C126.71 39.5772 125.781 36.3982 124.592 34.8405C126.691 34.9566 128.786 35.0801 130.885 35.2112C131.581 37.3717 132.277 39.5548 132.973 41.7603C134.049 45.1677 135.806 48.036 137.578 50.3463C136.502 46.9164 135.422 43.5464 134.339 40.2288C131.22 30.6617 124.05 30.4932 122.44 25.1461C122.44 25.1461 122.44 25.1386 122.436 25.1311C122.365 24.9065 121.447 22.0008 120.138 21.4279H139.759C138.593 22.7571 137.461 26.7787 138.398 31.1335C135.027 26.6139 129.305 23.1728 127.947 23.1765C126.939 23.169 127.345 24.4159 127.609 25.2023L127.616 25.2285C128.967 29.1826 137.931 34.6645 139.195 35.7878C138.62 36.7015 139.447 39.038 140.053 40.7829C140.26 41.3746 140.467 41.9699 140.674 42.5653C141.953 46.2499 143.976 52.2447 146.726 54.8172L146.723 54.8134ZM106.415 28.8157C107.231 30.5306 108.187 31.6015 109.597 32.3542C108.465 33.0394 107.901 34.1066 107.728 35.9489C106.87 34.0654 105.907 32.957 104.511 32.2156C105.659 31.5416 106.23 30.5157 106.418 28.8157H106.415ZM96.1449 36.8513C96.397 39.3938 96.7957 43.3928 98.1575 44.827C96.0584 44.7483 93.9593 44.6847 91.8565 44.6397C91.8113 43.9545 91.77 43.2693 91.7248 42.584C91.5631 40.0228 90.6903 38.1057 89.701 36.7314V36.7464C89.8289 39.2664 90.032 43.2318 90.8032 44.621C88.6439 44.5798 86.4846 44.5536 84.3253 44.5499C84.9423 43.3179 84.9536 39.9704 84.9235 37.4841C84.9122 36.7914 84.9046 36.1024 84.8934 35.4097C84.8858 34.8105 84.8708 34.1103 84.7579 33.4775C84.6488 32.8522 84.4419 32.2905 84.047 31.9535C84.8294 31.272 84.8106 29.7143 84.7956 28.6172C84.7918 28.254 84.7843 27.8908 84.7805 27.5238C84.7504 25.4232 84.7053 22.3977 84.1071 21.4241H89.2119C88.9712 22.4014 89.1254 25.4269 89.2307 27.5351C89.2872 28.6359 89.3436 29.7405 89.4 30.8414C89.5166 33.0619 90.3329 34.8218 91.3148 36.1623C91.1304 33.2865 90.9499 30.4146 90.7655 27.5388C90.6301 25.4307 90.4383 22.3977 89.795 21.4204H95.1894C94.7042 22.4014 95.0051 25.4457 95.2158 27.5688C95.2534 27.932 95.2873 28.2952 95.3249 28.6584C95.434 29.7668 95.592 31.3469 96.4572 32.0509C95.7311 32.7399 95.8967 34.3987 96.017 35.6119C96.0584 36.0237 96.0998 36.4356 96.1412 36.8475L96.1449 36.8513ZM70.2561 21.4241H83.2344C82.6739 22.3602 82.64 25.1761 82.6325 27.2617C82.6325 27.3478 82.6325 27.434 82.6325 27.5201C81.6319 24.3935 79.7058 22.877 78.66 22.877C78.5886 24.7866 78.5171 26.6963 78.4456 28.606C78.4042 29.7031 78.3478 31.2758 79.1152 31.9573C78.2951 32.6537 78.2312 34.3013 78.186 35.4995C78.171 35.9077 78.156 36.3158 78.1409 36.724C78.0469 39.2402 77.9002 43.2019 79.2469 44.5574C76.6211 44.5836 73.9954 44.6322 71.3696 44.7071C72.8706 43.2842 73.164 39.3114 73.3521 36.7801C73.3822 36.3458 73.4161 35.9152 73.4462 35.4808C73.5364 34.2788 73.638 32.6762 72.9082 32.0022C73.7509 31.3057 73.8713 29.7406 73.9502 28.6397C74.0932 26.7188 74.2324 24.7979 74.3753 22.877C73.3295 22.877 71.2342 24.4047 69.8875 27.5725C70.1132 25.4494 70.4405 22.4014 70.2524 21.4166L70.2561 21.4241ZM53.5161 36.0724C53.7869 34.8105 54.1631 33.1293 55.0998 32.3916C54.4641 31.7026 54.8139 30.0626 55.0622 28.9168C55.16 28.4562 55.2616 27.9994 55.3594 27.5388C55.8371 25.3558 56.5142 22.3939 57.7143 21.4241H52.3574C49.5361 22.4913 45.7066 24.5695 44.7247 28.0031C44.7247 28.0031 44.578 28.5086 44.3862 29.1751C44.0438 30.3696 43.551 32.0846 42.5466 32.8784C43.1184 33.5973 42.6219 35.3722 42.2495 36.6977C42.1178 37.1658 41.9861 37.6301 41.8545 38.0982C41.0682 40.8878 39.8344 45.3287 38.1905 47.0362C40.3384 46.7965 42.4864 46.5719 44.6382 46.3697C44.8263 45.617 45.0144 44.8644 45.2025 44.1155C45.9059 41.3109 47.1737 39.1953 48.4489 37.6751C47.7605 40.4984 47.0721 43.3442 46.3837 46.2087C48.3022 46.0327 50.2207 45.8717 52.143 45.7256C51.7706 44.3701 52.5869 40.416 53.1587 37.7574C53.2791 37.1958 53.3995 36.6341 53.5198 36.0724H53.5161ZM49.9913 31.3694C49.4082 33.7321 48.2157 35.6456 46.9592 37.1358C47.7492 34.0279 48.5354 30.95 49.3254 27.8945C49.8859 25.7227 50.9731 24.1089 52.0828 22.9519C51.3869 25.7377 50.691 28.5423 49.995 31.3694H49.9913ZM41.1435 33.3839C39.7629 38.0195 34.4926 41.5468 30.5389 43.7935C29.5458 46.8827 28.7746 49.3315 28.7746 49.3315C28.3533 50.6646 27.9358 52.0051 27.5144 53.3568C24.7758 53.8099 22.0372 54.2929 19.3062 54.8097C22.056 52.2372 24.0799 46.2424 25.3589 42.5578C25.5658 41.9625 25.7727 41.3671 25.9796 40.7755C26.5853 39.0305 27.4166 36.694 26.8411 35.7804C28.1088 34.7431 28.1765 34.1216 29.0455 32.5489C30.7082 29.5383 33.7139 27.4377 36.4262 26.0822C34.7522 30.9725 33.0819 35.9713 31.4154 41.0975C33.0631 39.1316 34.6882 36.6566 35.655 33.6722C36.1327 32.2044 36.6105 30.7441 37.0845 29.295C38.4312 25.2023 39.1234 23.169 38.1002 23.1728C36.7422 23.1728 31.0204 26.6102 27.6499 31.1297C28.5865 26.7749 27.4542 22.7534 26.2881 21.4241H45.9097C44.7962 22.6223 43.2162 26.423 42.4112 29.119C41.719 31.4256 41.1435 33.3839 41.1435 33.3839Z" fill="white"/>
<path d="M63.9589 14.5155C63.989 15.2232 63.6918 15.9047 63.1539 16.369C62.616 16.8296 61.905 17.0655 61.0172 17.0655H57.3381V8.3634H60.784C62.5332 8.3634 63.6693 9.30701 63.6693 10.8385C63.6956 11.5087 63.3984 12.1528 62.8642 12.5647C63.5715 12.9541 63.9965 13.7142 63.9589 14.5193V14.5155ZM59.5764 10.3517V11.7184H60.7238C61.0887 11.7446 61.4047 11.475 61.4347 11.1118C61.4347 11.0856 61.4347 11.0594 61.4347 11.0332C61.446 10.6662 61.1564 10.3592 60.7915 10.348C60.7689 10.348 60.7463 10.348 60.7238 10.348H59.5764V10.3517ZM60.9683 15.0772C61.3746 15.0772 61.7056 14.7477 61.7056 14.3433C61.7056 13.9389 61.3746 13.6094 60.9683 13.6094H59.5764V15.0772H60.9683Z" fill="white"/>
<path d="M66.7428 14.714C66.9572 15.2233 67.4161 15.4704 68.1534 15.4704C68.5748 15.4779 68.981 15.3244 69.2895 15.0361L70.7867 16.0808C70.1811 16.8521 69.2745 17.2378 68.1008 17.2378C67.0399 17.2378 66.1898 16.927 65.5503 16.3167C64.9145 15.7026 64.5647 14.8563 64.5872 13.9726C64.5647 13.0964 64.9032 12.2464 65.5239 11.6211C66.1522 10.9883 67.0174 10.6476 67.9089 10.6775C68.7779 10.6476 69.6206 10.9808 70.2262 11.6024C70.8356 12.2277 71.1667 13.0702 71.1403 13.9389C71.1403 14.1973 71.114 14.4557 71.05 14.7103H66.7352L66.7428 14.714ZM69.1165 13.2837C69.0036 12.7407 68.4995 12.3663 67.9428 12.4149C67.3033 12.4149 66.8932 12.7033 66.7164 13.2837H69.1127H69.1165Z" fill="white"/>
<path d="M76.1171 12.8268H74.8193V14.6316C74.8193 15.1783 75.1804 15.2532 76.1171 15.2045V17.0693C74.8832 17.2191 74.0105 17.1067 73.4989 16.7323C72.9873 16.3578 72.7352 15.6763 72.7465 14.6803V12.8305H71.8098V10.8535H72.7465V9.73388L74.8193 9.1123V10.8535H76.1171V12.8305V12.8268Z" fill="white"/>
<path d="M83.8776 14.5155C83.9077 15.2232 83.6105 15.9047 83.0726 16.369C82.5347 16.8296 81.8237 17.0655 80.9359 17.0655H77.2568V8.3634H80.7102C82.4594 8.3634 83.5955 9.30701 83.5955 10.8385C83.6218 11.5087 83.3246 12.1528 82.7905 12.5647C83.4977 12.9578 83.919 13.7142 83.8776 14.5193V14.5155ZM79.5026 10.3517V11.7184H80.6538C81.0186 11.7446 81.3346 11.475 81.3647 11.1118C81.3647 11.0856 81.3647 11.0594 81.3647 11.0332C81.376 10.6662 81.0864 10.3592 80.7139 10.348C80.6914 10.348 80.6726 10.348 80.65 10.348H79.4989L79.5026 10.3517ZM80.8907 15.0772C81.297 15.0772 81.6281 14.7477 81.6281 14.3433C81.6281 13.9389 81.297 13.6094 80.8907 13.6094H79.5026V15.0772H80.8907Z" fill="white"/>
<path d="M85.4877 16.2941C84.8482 15.6838 84.4984 14.8375 84.5134 13.9576C84.4946 13.0814 84.8482 12.2389 85.4877 11.6323C86.1122 11.0069 86.9623 10.6587 87.8501 10.6737C88.7379 10.655 89.5919 11.0032 90.2126 11.6323C90.8521 12.2351 91.2057 13.0814 91.1906 13.9576C91.1982 15.7624 89.731 17.234 87.9179 17.2415C87.899 17.2415 87.8765 17.2415 87.8577 17.2415C86.9736 17.2602 86.1159 16.9194 85.4915 16.2941H85.4877ZM89.1141 13.9576C89.1141 13.2686 88.5536 12.7069 87.8577 12.7069C87.1617 12.7069 86.6012 13.2649 86.6012 13.9576C86.6012 14.6503 87.1617 15.2082 87.8577 15.2082C88.5536 15.2082 89.1141 14.6503 89.1141 13.9576Z" fill="white"/>
<path d="M92.7708 16.2941C92.1313 15.6875 91.7739 14.8375 91.7927 13.9576C91.7777 13.0814 92.1313 12.2389 92.767 11.6323C93.3915 11.0069 94.2416 10.6587 95.1294 10.6737C96.0135 10.655 96.8711 11.0032 97.4881 11.6323C98.1276 12.2351 98.4812 13.0814 98.4624 13.9576C98.4812 14.8375 98.1276 15.6838 97.4881 16.2941C96.8674 16.9194 96.0135 17.2639 95.1294 17.2415C94.2454 17.2602 93.3952 16.9157 92.7708 16.2941ZM96.3972 13.9576C96.3972 13.2686 95.8366 12.7069 95.1407 12.7069C94.4448 12.7069 93.8843 13.2649 93.8843 13.9576C93.8843 14.6503 94.4448 15.2082 95.1407 15.2082C95.8366 15.2082 96.3972 14.6503 96.3972 13.9576Z" fill="white"/>
<path d="M108.694 13.2611V17.073H106.607V13.497C106.607 12.9129 106.343 12.6283 105.832 12.6283C105.271 12.6283 104.97 13.029 104.97 13.673V17.0692H102.897V13.5008C102.897 12.9166 102.634 12.6321 102.111 12.6321C101.551 12.6321 101.25 13.0327 101.25 13.6768V17.073H99.177V10.8497H101.261V11.4338C101.649 10.9246 102.209 10.6775 102.946 10.6775C103.684 10.6775 104.195 10.9396 104.545 11.4788C104.985 10.9396 105.659 10.64 106.358 10.6775C107.795 10.6775 108.694 11.6585 108.694 13.2649V13.2611Z" fill="white"/>
</svg>
