<svg width="76" height="25" viewBox="0 0 76 25" fill="none" xmlns="http://www.w3.org/2000/svg">
<path d="M42.2453 10.8833V14.4371C42.2453 15.4487 43.0671 16.2679 44.0817 16.2679C45.0963 16.2679 45.918 15.4487 45.918 14.4371V12.7141C45.918 11.7025 45.0963 10.8833 44.0817 10.8833H42.2453ZM45.918 8.49482V4.20508H48.9426V14.5448H48.9374C48.8243 16.8243 46.9352 18.6371 44.6218 18.6371H43.5416C41.1548 18.6371 39.2208 16.7076 39.2208 14.3294V12.6064C39.2208 10.2269 41.1561 8.29867 43.5416 8.29867H44.6218C45.0732 8.29867 45.5091 8.36662 45.918 8.49482ZM56.7213 10.8833V14.4371C56.7213 15.4487 57.5431 16.2679 58.5577 16.2679C59.5723 16.2679 60.394 15.4487 60.394 14.4371V12.7141C60.394 11.7025 59.5723 10.8833 58.5577 10.8833H56.7213ZM63.398 12.1756H63.4199V14.3294C63.4199 14.6371 63.3864 14.9371 63.3247 15.2269C62.6792 19.7141 58.8072 23.1615 54.1288 23.1615V20.1461H60.3953V18.6384H58.0189C55.6321 18.6384 53.6981 16.7089 53.6981 14.3307V12.6064C53.6981 10.2269 55.6334 8.29867 58.0189 8.29867H59.0991C61.3392 8.29867 63.182 9.99867 63.398 12.1756ZM67.3086 10.8833V14.4371C67.3086 15.4487 68.1303 16.2679 69.145 16.2679C70.1596 16.2679 70.9813 15.4487 70.9813 14.4371V12.7141C70.9813 11.7025 70.1596 10.8833 69.145 10.8833H67.3086ZM64.284 14.3294V12.6064C64.284 10.2269 66.2194 8.29867 68.6049 8.29867H69.6851C72.0718 8.29867 74.0059 10.2282 74.0059 12.6064V14.3294C74.0059 16.7089 72.0705 18.6371 69.6851 18.6371H68.6049C66.2194 18.6384 64.284 16.7089 64.284 14.3294ZM49.808 8.29867H52.8326V18.6384H49.808V8.29867ZM26.9039 7.22175C26.068 7.22175 25.3916 6.5461 25.3916 5.71405C25.3916 4.882 26.0693 4.20636 26.9039 4.20636C27.7385 4.20636 28.4162 4.882 28.4162 5.71405C28.4162 6.5461 27.7398 7.22175 26.9039 7.22175ZM51.3203 7.22175C50.4845 7.22175 49.808 6.5461 49.808 5.71405C49.808 4.882 50.4857 4.20636 51.3203 4.20636C52.1562 4.20636 52.8326 4.882 52.8326 5.71405C52.8326 6.5461 52.1549 7.22175 51.3203 7.22175ZM25.3916 8.29867H28.4162V18.6384H25.3916V8.29867ZM34.0345 11.3141H32.3062V18.6384H29.2816V12.391C29.2816 10.1307 31.1192 8.29867 33.3864 8.29867H34.0345C36.4212 8.29867 38.3553 10.2282 38.3553 12.6064V18.6384H35.3308V12.6064C35.3308 11.8923 34.7508 11.3141 34.0345 11.3141Z" fill="url(#paint0_linear_444_2097)"/>
<path d="M2.05762 2.05127V21.8692H16.3176C19.4206 21.8692 21.9359 19.3615 21.9359 16.2679V2.05127H2.05762ZM8.02702 9.88845C6.63948 9.88845 5.51427 8.76024 5.51427 7.36922C5.51427 5.97819 6.63948 4.84999 8.02702 4.84999C9.41457 4.84999 10.5398 5.97819 10.5398 7.36922C10.5385 8.76153 9.41457 9.88845 8.02702 9.88845ZM18.4793 15.4064C18.4793 17.2282 17.1252 18.6372 15.4547 18.6372C13.7842 18.6372 12.4301 17.2269 12.4301 15.4064V9.37563H15.4547C17.1252 9.37563 18.4793 10.7859 18.4793 12.6064V15.4064Z" fill="url(#paint1_linear_444_2097)"/>
<defs>
<linearGradient id="paint0_linear_444_2097" x1="21.4346" y1="13.6833" x2="69.201" y2="13.6833" gradientUnits="userSpaceOnUse">
<stop stop-color="#5D0B99"/>
<stop offset="1" stop-color="#871BD7"/>
</linearGradient>
<linearGradient id="paint1_linear_444_2097" x1="0.439615" y1="11.9602" x2="19.9712" y2="11.9602" gradientUnits="userSpaceOnUse">
<stop stop-color="#5D0B99"/>
<stop offset="1" stop-color="#871BD7"/>
</linearGradient>
</defs>
</svg>
