<svg width="241" height="25" viewBox="0 0 241 25" fill="none" xmlns="http://www.w3.org/2000/svg">
<path d="M0.739 24V0.899998H10.738C12.806 0.899998 14.588 1.241 16.084 1.923C17.58 2.583 18.735 3.54 19.549 4.794C20.363 6.048 20.77 7.544 20.77 9.282C20.77 10.998 20.363 12.483 19.549 13.737C18.735 14.991 17.58 15.959 16.084 16.641C14.588 17.301 12.806 17.631 10.738 17.631H3.709L6.085 15.222V24H0.739ZM6.085 15.816L3.709 13.275H10.441C12.091 13.275 13.323 12.923 14.137 12.219C14.951 11.515 15.358 10.536 15.358 9.282C15.358 8.006 14.951 7.016 14.137 6.312C13.323 5.608 12.091 5.256 10.441 5.256H3.709L6.085 2.715V15.816ZM29.8728 24L22.3158 0.899998H27.8598L34.4268 21.36H31.6548L38.5188 0.899998H43.4688L50.0688 21.36H47.3958L54.1278 0.899998H59.2428L51.6858 24H45.9438L40.1028 6.048H41.6208L35.6148 24H29.8728ZM58.4178 24L68.7138 0.899998H73.9938L84.3228 24H78.7128L70.2648 3.606H72.3768L63.8958 24H58.4178ZM63.5658 19.05L64.9848 14.991H76.8648L78.3168 19.05H63.5658Z" fill="#F4274D"/>
<path d="M88.3035 24.264C87.4235 24.264 86.6645 23.967 86.0265 23.373C85.4105 22.757 85.1025 21.976 85.1025 21.03C85.1025 20.084 85.4105 19.325 86.0265 18.753C86.6645 18.159 87.4235 17.862 88.3035 17.862C89.2055 17.862 89.9645 18.159 90.5805 18.753C91.1965 19.325 91.5045 20.084 91.5045 21.03C91.5045 21.976 91.1965 22.757 90.5805 23.373C89.9645 23.967 89.2055 24.264 88.3035 24.264ZM95.3562 24V0.899998H99.7782L109.612 17.202H107.269L116.938 0.899998H121.327L121.393 24H116.377L116.344 8.589H117.268L109.546 21.558H107.137L99.2502 8.589H100.372V24H95.3562ZM123.838 24L134.134 0.899998H139.414L149.743 24H144.133L135.685 3.606H137.797L129.316 24H123.838ZM128.986 19.05L130.405 14.991H142.285L143.737 19.05H128.986ZM152.139 24V0.899998H162.138C164.206 0.899998 165.988 1.241 167.484 1.923C168.98 2.583 170.135 3.54 170.949 4.794C171.763 6.048 172.17 7.544 172.17 9.282C172.17 10.998 171.763 12.483 170.949 13.737C170.135 14.969 168.98 15.915 167.484 16.575C165.988 17.235 164.206 17.565 162.138 17.565H155.109L157.485 15.222V24H152.139ZM166.824 24L161.049 15.618H166.758L172.599 24H166.824ZM157.485 15.816L155.109 13.308H161.841C163.491 13.308 164.723 12.956 165.537 12.252C166.351 11.526 166.758 10.536 166.758 9.282C166.758 8.006 166.351 7.016 165.537 6.312C164.723 5.608 163.491 5.256 161.841 5.256H155.109L157.485 2.715V15.816ZM181.191 18.72L180.894 12.549L191.949 0.899998H197.889L187.923 11.625L184.953 14.793L181.191 18.72ZM176.406 24V0.899998H181.719V24H176.406ZM192.213 24L183.996 13.935L187.494 10.14L198.45 24H192.213ZM205.751 10.206H216.872V14.364H205.751V10.206ZM206.147 19.71H218.72V24H200.834V0.899998H218.291V5.19H206.147V19.71ZM227.758 24V5.256H220.366V0.899998H240.496V5.256H233.104V24H227.758Z" fill="white"/>
</svg>
