<?xml version="1.0" encoding="UTF-8"?> <svg xmlns="http://www.w3.org/2000/svg" width="108" height="38" viewBox="0 0 108 38" fill="none"> <path d="M9.91566 37.5094H2.06396L2.06396 11.9914L9.91566 11.9914L9.91566 37.5094Z" fill="#4F3EFF"></path> <path d="M22.6632 11.9914L22.6632 18.3709C23.0885 16.7678 23.6446 15.4428 24.3316 14.396C25.0514 13.3163 25.8038 12.5802 26.589 12.1877C27.4069 11.7951 28.2739 11.5661 29.1899 11.5006C30.1059 11.4352 30.9892 11.5988 31.8398 11.9914L31.8398 19.3523C29.2226 18.3382 27.0307 18.24 25.264 19.0579C23.5301 19.8431 22.6632 21.2662 22.6632 23.3273L22.6632 37.5094H14.8115L14.8115 11.9914L22.6632 11.9914Z" fill="white"></path> <path d="M46.063 11.5006C50.4796 11.5006 53.9965 13.1037 56.6137 16.3098C59.2309 19.5159 60.1142 23.2782 59.2636 27.5966L40.7631 27.5966C41.2211 28.7417 41.9572 29.6577 42.9714 30.3447C44.0183 30.999 45.2124 31.3262 46.5537 31.3262C48.9419 31.3262 50.7249 30.3774 51.9027 28.4799L58.2822 31.4243C57.0717 33.42 55.4359 35.023 53.3749 36.2335C51.3138 37.4112 48.9583 38.0001 46.3083 38.0001C42.4152 38.0001 39.1437 36.7406 36.4937 34.2215C33.8765 31.6697 32.5679 28.5126 32.5679 24.7504C32.5679 20.9881 33.8601 17.8474 36.4446 15.3283C39.0292 12.7765 42.2353 11.5006 46.063 11.5006ZM46.063 18.1746C44.9179 18.1746 43.8874 18.5017 42.9714 19.156C42.0553 19.7776 41.352 20.6282 40.8612 21.7078H51.3138C50.3651 19.3523 48.6148 18.1746 46.063 18.1746Z" fill="white"></path> <path d="M78.3119 11.5006C81.06 11.5006 83.2519 12.4657 84.8877 14.396C86.5562 16.2934 87.3904 18.7798 87.3904 21.8551V37.5094H79.5387V23.3273C79.5387 21.9205 79.0971 20.7918 78.2138 19.9412C77.3304 19.0579 76.2181 18.6162 74.8768 18.6162C73.3392 18.6162 72.096 19.0579 71.1472 19.9412C70.1985 20.7918 69.7241 21.9205 69.7241 23.3273V37.5094L61.8724 37.5094L61.8724 11.9914L69.7241 11.9914V18.3709C70.4111 16.2444 71.5071 14.5759 73.012 13.3654C74.5169 12.1222 76.2835 11.5006 78.3119 11.5006Z" fill="white"></path> <path d="M93.7961 18.8616H88.8888V11.9914H93.7961V5.12114L101.648 2.66748V11.9914L107.782 11.9914V18.8616H101.648V27.6948C101.648 29.6577 102.629 30.6391 104.592 30.6391H107.782V37.5094H104.592C97.3948 37.5094 93.7961 34.0743 93.7961 27.204V18.8616Z" fill="white"></path> <g clip-path="url(#clip0_204_396)"> <path d="M7.87519 4.36955C7.87519 3.09024 8.55638 1.97708 9.58647 1.36235C8.70591 0.548248 7.52629 0.0332031 6.23037 0.0332031C3.489 0.0498175 1.2793 2.25953 1.2793 5.00089C1.2793 7.74226 3.489 9.95197 6.21376 9.95197C7.94165 9.95197 9.45355 9.07141 10.3341 7.74226C8.90528 7.29367 7.87519 5.94791 7.87519 4.36955Z" fill="#4F3EFF"></path> </g> <defs> <clipPath id="clip0_204_396"> <rect width="13.6238" height="9.96861" fill="white"></rect> </clipPath> </defs> </svg> 