<svg width="150" height="34" viewBox="0 0 378 88" fill="none" xmlns="http://www.w3.org/2000/svg">
<path d="M42.8383 86.1546L17.9951 53.528V86.1546H0V12.269H17.9951V44.6917L42.6344 12.269H63.7901L35.1576 48.4811L64.8436 86.1546H42.8383Z" fill="#62C862"/>
<path d="M119.373 61.1069H78.6246C78.8964 64.7604 80.0859 67.5472 82.142 69.4674C84.2151 71.4046 86.747 72.3562 89.7717 72.3562C94.2577 72.3562 97.3844 70.453 99.1346 66.6636H118.285C117.3 70.521 115.532 74.0046 112.967 77.0803C110.401 80.173 107.189 82.586 103.332 84.3363C99.4744 86.0866 95.1583 86.9702 90.3834 86.9702C84.6229 86.9702 79.5082 85.7467 75.0051 83.2827C70.5191 80.8358 67.0016 77.3182 64.4867 72.7641C61.9548 68.2099 60.6974 62.8741 60.6974 56.7567C60.6974 50.6562 61.9378 45.3204 64.4357 40.7662C66.9167 36.2121 70.4171 32.6946 74.9032 30.2306C79.3892 27.7836 84.555 26.5431 90.3834 26.5431C96.0589 26.5431 101.123 27.7326 105.541 30.1286C109.959 32.5076 113.408 35.9232 115.906 40.3414C118.404 44.7596 119.645 49.9255 119.645 55.822C119.679 57.5213 119.577 59.2886 119.373 61.1069ZM101.259 51.115C101.259 48.0223 100.205 45.5753 98.098 43.74C95.991 41.9218 93.3571 41.0041 90.1965 41.0041C87.1888 41.0041 84.6399 41.8878 82.5668 43.6381C80.4937 45.3883 79.2193 47.8863 78.7265 51.115H101.259Z" fill="#62C862"/>
<path d="M146.187 27.4265V86.1543H128.192V27.4265H146.187Z" fill="#62C862"/>
<path d="M225.984 26.5769C221.141 26.5769 216.757 27.8004 212.832 30.2644C208.907 32.7283 205.797 36.2289 203.52 40.8C201.243 45.3541 200.104 50.656 200.104 56.6885C200.104 62.721 201.243 68.0398 203.52 72.6279C205.797 77.216 208.907 80.7676 212.832 83.2655C216.757 85.7635 221.107 87.004 225.882 87.004C230.028 87.004 233.648 86.1543 236.774 84.472C239.901 82.7897 242.331 80.5806 244.081 77.8448V86.1543H262.076V27.4265H244.081V35.7361C242.399 33.0002 239.986 30.7911 236.876 29.1088C233.75 27.4265 230.13 26.5769 225.984 26.5769ZM242.467 56.7904C242.467 61.2766 241.226 64.8281 238.729 67.4281C236.248 70.028 233.206 71.3195 229.621 71.3195C226.035 71.3195 223.01 70.011 220.513 67.3771C218.015 64.7432 216.774 61.1916 216.774 56.6885C216.774 52.2023 218.015 48.6678 220.513 46.1018C222.993 43.5359 226.035 42.2614 229.621 42.2614C233.189 42.2614 236.231 43.5529 238.729 46.1528C241.226 48.7527 242.467 52.3043 242.467 56.7904Z" fill="#62C862"/>
<path d="M194.378 77.1651C193.392 75.177 192.577 73.0698 191.914 70.8947H187.241C185.27 70.8947 183.877 70.5209 183.027 69.7392C182.177 68.9745 181.769 67.7 181.769 65.9498V42.3805H191.948H193.477H193.562V42.1086V38.0472V27.4436H181.769V13.1185H163.774V27.4436H156.62V42.3805H163.774V65.7458C163.774 72.9679 165.593 78.1847 169.246 81.3794C172.899 84.5741 177.98 86.1714 184.505 86.1714H200.529C198.133 83.5545 196.077 80.5637 194.378 77.1651Z" fill="#62C862"/>
<path d="M144.692 2.88881C142.636 0.968601 140.138 0 137.198 0C134.241 0 131.743 0.951608 129.687 2.85482C127.631 4.75804 126.612 7.37496 126.612 10.7226C126.612 14.0532 127.631 16.7041 129.687 18.6583C131.743 20.6125 134.241 21.5981 137.181 21.5981C140.121 21.5981 142.636 20.6295 144.675 18.7093C146.731 16.7891 147.75 14.1552 147.75 10.8076C147.767 7.45993 146.748 4.82601 144.692 2.88881Z" fill="#62C862"/>
<path d="M362.706 30.2645C358.084 27.8175 352.885 26.5771 347.124 26.5771C341.364 26.5771 336.181 27.8006 331.542 30.2645C326.92 32.7285 323.267 36.2461 320.599 40.8512C317.931 45.4393 316.606 50.7581 316.606 56.7906C316.606 62.8911 317.914 68.2269 320.548 72.798C323.182 77.3522 326.784 80.8697 331.389 83.3167C335.977 85.7807 341.16 87.0042 346.92 87.0042C352.664 87.0042 357.881 85.7807 362.553 83.3167C367.209 80.8697 370.897 77.3352 373.599 72.7471C376.3 68.1589 377.643 62.8401 377.643 56.7906C377.643 50.7581 376.317 45.4393 373.65 40.8512C370.982 36.2461 367.345 32.7285 362.706 30.2645ZM355.705 67.6322C353.293 70.1471 350.353 71.4216 346.92 71.4216C343.488 71.4216 340.616 70.1641 338.339 67.6322C336.062 65.1002 334.924 61.4977 334.924 56.7906C334.924 52.0156 336.079 48.3791 338.39 45.8981C340.701 43.4001 343.624 42.1596 347.124 42.1596C350.557 42.1596 353.462 43.4171 355.807 45.9491C358.152 48.481 359.325 52.0836 359.325 56.7906C359.342 61.4977 358.135 65.1172 355.705 67.6322Z" fill="#62C862"/>
<path d="M317.642 28.0724C315.858 27.2227 313.734 26.7979 310.913 26.7979C308.194 26.7979 303.538 27.7325 300.378 29.5848C297.217 31.454 294.583 33.986 292.476 37.2146V27.4267H274.481V86.1545H292.476V58.8977C292.476 54.0547 293.598 50.6731 295.841 48.7359C298.084 46.8157 301.448 45.8471 305.951 45.8471H307.719C308.619 42.2446 309.979 38.8629 311.797 35.7362C313.445 32.8814 315.399 30.3325 317.642 28.0724Z" fill="#62C862"/>
</svg>
