<svg width="162" height="27" viewBox="0 0 162 27" fill="none" xmlns="http://www.w3.org/2000/svg">
<g clip-path="url(#clip0_1_1483)">
<path fill-rule="evenodd" clip-rule="evenodd" d="M8.34085 6.42569C4.01047 6.42569 0.5 9.93819 0.5 14.2031C0.5 18.4679 4.01047 21.9804 8.34085 21.9804H16.1817V26.9999H21.3343V16.9058H8.34085C6.90376 16.9058 5.65255 15.7124 5.65255 14.2031C5.65255 12.6937 6.90376 11.5003 8.34085 11.5003H16.1817H21.3343V1.43384H16.1817V6.42569H8.34085Z" fill="#383846"/>
<path d="M5.70857 1.40649H0.5V6.53625H5.70857V1.40649Z" fill="#3A76DD"/>
<path d="M5.70857 21.8701H0.5V26.9999H5.70857V21.8701Z" fill="#3A76DD"/>
<path d="M35.876 14.3583C34.7932 14.3583 33.8135 14.1247 32.937 13.6576C32.0708 13.1802 31.3902 12.5302 30.8952 11.7076C30.4002 10.8748 30.1527 9.94041 30.1527 8.90444C30.1527 7.86852 30.4002 6.93923 30.8952 6.11657C31.3902 5.28379 32.0759 4.63378 32.9525 4.16659C33.829 3.68925 34.8087 3.45058 35.8914 3.45058C36.7371 3.45058 37.5105 3.59277 38.2117 3.87714C38.913 4.15136 39.511 4.56268 40.0061 5.11114L39.0006 6.07086C38.1859 5.22792 37.1702 4.80643 35.9533 4.80643C35.149 4.80643 34.4219 4.98419 33.7723 5.33965C33.1226 5.69512 32.6122 6.18765 32.2409 6.81734C31.88 7.43687 31.6996 8.13258 31.6996 8.90444C31.6996 9.67635 31.88 10.3771 32.2409 11.0068C32.6122 11.6263 33.1226 12.1138 33.7723 12.4693C34.4219 12.8247 35.149 13.0025 35.9533 13.0025C37.1598 13.0025 38.1756 12.5759 39.0006 11.7228L40.0061 12.6826C39.511 13.231 38.9078 13.6474 38.1962 13.9317C37.495 14.2161 36.7216 14.3583 35.876 14.3583ZM41.9961 2.93261H43.4811V14.2364H41.9961V2.93261ZM49.8277 14.3279C49.013 14.3279 48.2809 14.1501 47.6312 13.7946C46.9815 13.4392 46.4711 12.9517 46.0998 12.3322C45.7389 11.7025 45.5585 10.9915 45.5585 10.1994C45.5585 9.40718 45.7389 8.70135 46.0998 8.08182C46.4711 7.45213 46.9815 6.96461 47.6312 6.61931C48.2809 6.26384 49.013 6.08613 49.8277 6.08613C50.6423 6.08613 51.3695 6.26384 52.0085 6.61931C52.6585 6.96461 53.1639 7.45213 53.5248 8.08182C53.8957 8.70135 54.0816 9.40718 54.0816 10.1994C54.0816 10.9915 53.8957 11.7025 53.5248 12.3322C53.1639 12.9517 52.6585 13.4392 52.0085 13.7946C51.3695 14.1501 50.6423 14.3279 49.8277 14.3279ZM49.8277 13.0482C50.3537 13.0482 50.8227 12.9314 51.2354 12.6978C51.6581 12.4541 51.9881 12.1189 52.2254 11.6923C52.4626 11.2556 52.5813 10.758 52.5813 10.1994C52.5813 9.64076 52.4626 9.14818 52.2254 8.72163C51.9881 8.28491 51.6581 7.94977 51.2354 7.7162C50.8227 7.48257 50.3537 7.36578 49.8277 7.36578C49.3018 7.36578 48.8274 7.48257 48.4046 7.7162C47.9922 7.94977 47.6621 8.28491 47.4146 8.72163C47.1775 9.14818 47.0589 9.64076 47.0589 10.1994C47.0589 10.758 47.1775 11.2556 47.4146 11.6923C47.6621 12.1189 47.9922 12.4541 48.4046 12.6978C48.8274 12.9314 49.3018 13.0482 49.8277 13.0482ZM59.0452 6.08613C60.1792 6.08613 61.0455 6.3603 61.6436 6.90875C62.2522 7.45719 62.5563 8.27475 62.5563 9.36148V14.2364H61.1487V13.17C60.9014 13.5458 60.5455 13.8353 60.0815 14.0384C59.6279 14.2314 59.0861 14.3279 58.457 14.3279C57.5394 14.3279 56.8021 14.1095 56.2454 13.6728C55.6986 13.2361 55.4254 12.6623 55.4254 11.9513C55.4254 11.2404 55.6886 10.6716 56.2145 10.2451C56.7403 9.80835 57.5757 9.58999 58.7202 9.58999H61.0714V9.30055C61.0714 8.67087 60.886 8.18845 60.5146 7.85331C60.1433 7.51811 59.597 7.35057 58.8747 7.35057C58.3902 7.35057 57.9157 7.43181 57.4516 7.5943C56.9876 7.74663 56.5958 7.95483 56.2763 8.21889L55.6577 7.12205C56.0804 6.7869 56.5858 6.53301 57.1735 6.3603C57.7612 6.17754 58.3852 6.08613 59.0452 6.08613ZM58.7047 13.2005C59.272 13.2005 59.762 13.0786 60.1742 12.8349C60.5869 12.581 60.886 12.2255 61.0714 11.7685V10.6412H58.782C57.5239 10.6412 56.8949 11.0576 56.8949 11.8904C56.8949 12.2966 57.0549 12.6165 57.3744 12.8501C57.6944 13.0837 58.1375 13.2005 58.7047 13.2005ZM68.4908 10.4736L66.7891 12.0275V14.2364H65.3042V2.93261H66.7891V10.1841L71.2597 6.16227H73.0542L69.6044 9.49859L73.3941 14.2364H71.5693L68.4908 10.4736ZM74.7305 6.16227H76.2154V14.2364H74.7305V6.16227ZM75.4732 4.60839C75.1841 4.60839 74.9418 4.51698 74.7459 4.33417C74.5605 4.15136 74.4673 3.92792 74.4673 3.66386C74.4673 3.3998 74.5605 3.17637 74.7459 2.99355C74.9418 2.80058 75.1841 2.7041 75.4732 2.7041C75.7618 2.7041 75.999 2.79551 76.1845 2.97832C76.3803 3.15097 76.4785 3.36933 76.4785 3.63339C76.4785 3.90761 76.3803 4.1412 76.1845 4.33417C75.999 4.51698 75.7618 4.60839 75.4732 4.60839ZM83.4285 6.08613C84.4697 6.08613 85.2947 6.38573 85.9033 6.98494C86.5219 7.57398 86.8314 8.44235 86.8314 9.58999V14.2364H85.3465V9.75759C85.3465 8.97552 85.1556 8.38648 84.7738 7.99042C84.3925 7.5943 83.8457 7.39627 83.1344 7.39627C82.3299 7.39627 81.6958 7.62984 81.2318 8.09704C80.7677 8.55408 80.5354 9.2142 80.5354 10.0775V14.2364H79.0506V6.16227H80.4736V7.381C80.7727 6.96461 81.175 6.64469 81.6804 6.42128C82.1958 6.19781 82.7785 6.08613 83.4285 6.08613ZM97.4674 6.16227V13.1396C97.4674 14.5513 97.1115 15.5923 96.3997 16.2626C95.6884 16.9431 94.6262 17.2833 93.2136 17.2833C92.44 17.2833 91.7028 17.1767 91.0014 16.9634C90.3001 16.7603 89.7329 16.4657 89.2997 16.0798L90.0115 14.9524C90.3928 15.2775 90.8624 15.5314 91.4191 15.7142C91.9864 15.9072 92.5691 16.0036 93.1672 16.0036C94.1262 16.0036 94.8325 15.7802 95.2861 15.3333C95.7502 14.8865 95.9825 14.206 95.9825 13.2919V12.6521C95.6316 13.0685 95.1984 13.3833 94.683 13.5966C94.1776 13.7997 93.6258 13.9013 93.0276 13.9013C92.2441 13.9013 91.5323 13.7388 90.8933 13.4138C90.2642 13.0786 89.7693 12.6165 89.4084 12.0275C89.0475 11.4283 88.8671 10.7478 88.8671 9.98611C88.8671 9.22437 89.0475 8.54897 89.4084 7.95993C89.7693 7.36073 90.2642 6.89859 90.8933 6.5736C91.5323 6.24862 92.2441 6.08613 93.0276 6.08613C93.6467 6.08613 94.2189 6.19781 94.7448 6.42128C95.2811 6.64469 95.7193 6.97477 96.0597 7.41149V6.16227H97.4674ZM93.1981 12.6216C93.734 12.6216 94.214 12.5099 94.6367 12.2865C95.0698 12.063 95.4048 11.7533 95.642 11.3572C95.8893 10.9509 96.0134 10.4939 96.0134 9.98611C96.0134 9.20404 95.7502 8.57435 95.2243 8.09704C94.6985 7.60952 94.0231 7.36578 93.1981 7.36578C92.3627 7.36578 91.6818 7.60952 91.156 8.09704C90.6301 8.57435 90.3674 9.20404 90.3674 9.98611C90.3674 10.4939 90.486 10.9509 90.7228 11.3572C90.9705 11.7533 91.3055 12.063 91.7287 12.2865C92.1613 12.5099 92.6513 12.6216 93.1981 12.6216ZM100.66 14.3279C100.372 14.3279 100.124 14.2314 99.9178 14.0384C99.7114 13.8353 99.6087 13.5814 99.6087 13.2767C99.6087 12.9822 99.7114 12.7384 99.9178 12.5455C100.124 12.3423 100.372 12.2408 100.66 12.2408C100.949 12.2408 101.191 12.3372 101.387 12.5302C101.583 12.7232 101.681 12.972 101.681 13.2767C101.681 13.5814 101.578 13.8353 101.372 14.0384C101.176 14.2314 100.939 14.3279 100.66 14.3279Z" fill="#414150"/>
<path d="M113.616 3.57227V14.2363H111.11V9.86403H106.191V14.2363H103.686V3.57227H106.191V7.77693H111.11V3.57227H113.616ZM119.967 14.3582C119.091 14.3582 118.302 14.1804 117.601 13.8249C116.91 13.4593 116.369 12.9566 115.977 12.3168C115.585 11.6769 115.389 10.9508 115.389 10.1382C115.389 9.32575 115.585 8.59959 115.977 7.95974C116.369 7.31989 116.91 6.82226 117.601 6.46679C118.302 6.10116 119.091 5.91834 119.967 5.91834C120.844 5.91834 121.628 6.10116 122.319 6.46679C123.01 6.82226 123.551 7.31989 123.943 7.95974C124.335 8.59959 124.531 9.32575 124.531 10.1382C124.531 10.9508 124.335 11.6769 123.943 12.3168C123.551 12.9566 123.01 13.4593 122.319 13.8249C121.628 14.1804 120.844 14.3582 119.967 14.3582ZM119.967 12.4082C120.587 12.4082 121.091 12.205 121.484 11.7988C121.886 11.3824 122.087 10.8289 122.087 10.1382C122.087 9.44764 121.886 8.89919 121.484 8.49292C121.091 8.07653 120.587 7.86833 119.967 7.86833C119.349 7.86833 118.838 8.07653 118.436 8.49292C118.034 8.89919 117.833 9.44764 117.833 10.1382C117.833 10.8289 118.034 11.3824 118.436 11.7988C118.838 12.205 119.349 12.4082 119.967 12.4082ZM134.528 6.04024V14.2363H132.238V13.2613C131.918 13.6167 131.537 13.891 131.093 14.0839C130.65 14.2667 130.171 14.3582 129.655 14.3582C128.562 14.3582 127.696 14.0484 127.056 13.4289C126.417 12.8093 126.097 11.8902 126.097 10.6714V6.04024H128.51V10.3211C128.51 11.6414 129.072 12.3015 130.196 12.3015C130.774 12.3015 131.238 12.1187 131.588 11.7531C131.939 11.3773 132.115 10.8238 132.115 10.0925V6.04024H134.528ZM139.563 14.3582C138.872 14.3582 138.196 14.2769 137.536 14.1144C136.876 13.9417 136.351 13.7285 135.959 13.4746L136.763 11.7683C137.134 12.0019 137.583 12.1949 138.109 12.3472C138.635 12.4894 139.15 12.5605 139.656 12.5605C140.677 12.5605 141.187 12.3117 141.187 11.814C141.187 11.5804 141.048 11.4128 140.769 11.3113C140.491 11.2097 140.063 11.1234 139.485 11.0523C138.805 10.9508 138.243 10.8339 137.8 10.7019C137.356 10.5699 136.969 10.3363 136.639 10.0011C136.32 9.66599 136.16 9.18863 136.16 8.56911C136.16 8.05115 136.309 7.59411 136.608 7.19805C136.918 6.79177 137.361 6.47695 137.939 6.25349C138.526 6.03008 139.217 5.91834 140.012 5.91834C140.599 5.91834 141.182 5.98437 141.759 6.11638C142.347 6.23827 142.832 6.41092 143.213 6.63434L142.409 8.32537C141.677 7.91909 140.878 7.716 140.012 7.716C139.496 7.716 139.109 7.78709 138.851 7.92926C138.594 8.07147 138.465 8.25429 138.465 8.4777C138.465 8.7316 138.604 8.90936 138.882 9.01093C139.161 9.11244 139.604 9.20896 140.213 9.30036C140.893 9.4121 141.45 9.53394 141.883 9.66599C142.316 9.78784 142.693 10.0164 143.012 10.3515C143.332 10.6867 143.492 11.1538 143.492 11.7531C143.492 12.2609 143.337 12.7128 143.028 13.1089C142.718 13.505 142.265 13.8148 141.667 14.0382C141.079 14.2515 140.378 14.3582 139.563 14.3582ZM153.132 10.1687C153.132 10.1992 153.117 10.4125 153.086 10.8085H146.791C146.904 11.3163 147.172 11.7175 147.595 12.012C148.018 12.3066 148.544 12.4539 149.173 12.4539C149.606 12.4539 149.987 12.3929 150.317 12.2711C150.658 12.139 150.972 11.9359 151.261 11.6617L152.545 13.0327C151.761 13.9163 150.616 14.3582 149.111 14.3582C148.172 14.3582 147.342 14.1804 146.62 13.8249C145.898 13.4593 145.342 12.9566 144.95 12.3168C144.558 11.6769 144.362 10.9508 144.362 10.1382C144.362 9.33591 144.553 8.61481 144.934 7.97496C145.326 7.325 145.857 6.82226 146.528 6.46679C147.208 6.10116 147.966 5.91834 148.801 5.91834C149.616 5.91834 150.354 6.091 151.014 6.4363C151.674 6.78161 152.189 7.27929 152.56 7.92926C152.942 8.56911 153.132 9.31558 153.132 10.1687ZM148.817 7.716C148.27 7.716 147.812 7.86833 147.44 8.17304C147.069 8.4777 146.842 8.89409 146.76 9.42221H150.859C150.776 8.90425 150.55 8.49292 150.178 8.18826C149.807 7.87339 149.353 7.716 148.817 7.716Z" fill="#3A76DD"/>
<path d="M31.5865 24.0816C31.305 24.0816 31.0364 24.0348 30.7805 23.9412C30.5283 23.844 30.3309 23.7198 30.1884 23.5686L30.3145 23.3634C30.4497 23.5038 30.6306 23.619 30.8573 23.709C31.0876 23.7954 31.3288 23.8386 31.581 23.8386C31.9465 23.8386 32.2225 23.7702 32.409 23.6334C32.5954 23.4965 32.6886 23.3183 32.6886 23.0988C32.6886 22.9295 32.6392 22.7945 32.5405 22.6938C32.4419 22.593 32.3194 22.5156 32.1732 22.4616C32.027 22.4076 31.8296 22.3517 31.581 22.2942C31.2996 22.2258 31.073 22.1592 30.9011 22.0944C30.733 22.0296 30.5886 21.9305 30.468 21.7974C30.351 21.6605 30.2925 21.4788 30.2925 21.252C30.2925 21.0684 30.3419 20.901 30.4406 20.7498C30.5393 20.595 30.6891 20.4725 30.8902 20.3826C31.0949 20.2926 31.3489 20.2476 31.6523 20.2476C31.8643 20.2476 32.0727 20.2781 32.2774 20.3394C32.4821 20.4006 32.6593 20.4833 32.8092 20.5878L32.705 20.8092C32.5515 20.7047 32.3815 20.6256 32.1951 20.5716C32.0123 20.5176 31.8314 20.4906 31.6523 20.4906C31.2978 20.4906 31.0291 20.5608 30.8463 20.7012C30.6635 20.8416 30.5722 21.0233 30.5722 21.2466C30.5722 21.4158 30.6215 21.5508 30.7202 21.6516C30.8189 21.7523 30.9414 21.8298 31.0876 21.8838C31.2338 21.9378 31.433 21.9953 31.6852 22.0566C31.9667 22.1249 32.1915 22.1916 32.3596 22.2564C32.5277 22.3212 32.6703 22.4202 32.7873 22.5534C32.9079 22.683 32.9682 22.8593 32.9682 23.0826C32.9682 23.2662 32.917 23.4336 32.8147 23.5848C32.716 23.736 32.5625 23.8566 32.3541 23.9466C32.1458 24.0365 31.8899 24.0816 31.5865 24.0816ZM38.4861 23.8062V24.0546H35.8379V20.2746H38.4039V20.523H36.1175V22.0134H38.1626V22.2564H36.1175V23.8062H38.4861ZM44.0894 24.0546L43.1738 22.791C43.0385 22.809 42.9143 22.818 42.8009 22.818H41.7043V24.0546H41.4247V20.2746H42.8009C43.2834 20.2746 43.6618 20.388 43.9359 20.6148C44.2101 20.838 44.3471 21.1494 44.3471 21.549C44.3471 21.8478 44.2686 22.0998 44.1114 22.305C43.9578 22.5066 43.7367 22.6487 43.4479 22.7316L44.4074 24.0546H44.0894ZM42.8009 22.575C43.2104 22.575 43.5229 22.4867 43.7385 22.3104C43.9542 22.1303 44.062 21.8765 44.062 21.549C44.062 21.2214 43.9542 20.9693 43.7385 20.793C43.5229 20.6129 43.2104 20.523 42.8009 20.523H41.7043V22.575H42.8009ZM50.3552 20.2746L48.6443 24.0546H48.3647L46.654 20.2746H46.961L48.5127 23.6982L50.0644 20.2746H50.3552ZM52.8928 20.2746H53.1725V24.0546H52.8928V20.2746ZM58.0518 24.0816C57.6755 24.0816 57.3355 23.9987 57.032 23.8332C56.7324 23.6676 56.4947 23.439 56.3192 23.1474C56.1477 22.8558 56.0615 22.5282 56.0615 22.1646C56.0615 21.8009 56.1477 21.4734 56.3192 21.1818C56.4947 20.8902 56.7324 20.6615 57.032 20.496C57.3355 20.3304 57.6755 20.2476 58.0518 20.2476C58.33 20.2476 58.5857 20.2926 58.8194 20.3826C59.0537 20.469 59.2526 20.5986 59.4171 20.7714L59.2416 20.9496C58.9346 20.6507 58.5418 20.5014 58.0628 20.5014C57.7413 20.5014 57.4487 20.5734 57.1855 20.7174C56.9223 20.8613 56.716 21.0611 56.5659 21.3168C56.4164 21.5687 56.3411 21.8514 56.3411 22.1646C56.3411 22.4778 56.4164 22.7621 56.5659 23.0178C56.716 23.2697 56.9223 23.4678 57.1855 23.6118C57.4487 23.7557 57.7413 23.8278 58.0628 23.8278C58.5383 23.8278 58.9311 23.6766 59.2416 23.3742L59.4171 23.5524C59.2526 23.7252 59.0517 23.8566 58.814 23.9466C58.5802 24.0365 58.326 24.0816 58.0518 24.0816ZM64.921 23.8062V24.0546H62.2727V20.2746H64.8387V20.523H62.5523V22.0134H64.5975V22.2564H62.5523V23.8062H64.921ZM71.4667 20.523V22.1376H73.5118V22.386H71.4667V24.0546H71.187V20.2746H73.7531V20.523H71.4667ZM76.5648 20.2746H76.8445V24.0546H76.5648V20.2746ZM80.1008 20.2746H80.3805V23.8062H82.5901V24.0546H80.1008V20.2746ZM85.6033 20.523H84.2215V20.2746H87.2646V20.523H85.8829V24.0546H85.6033V20.523ZM92.5258 23.8062V24.0546H89.8775V20.2746H92.4435V20.523H90.1571V22.0134H92.2023V22.2564H90.1571V23.8062H92.5258ZM98.1289 24.0546L97.2132 22.791C97.0781 22.809 96.9535 22.818 96.8404 22.818H95.7438V24.0546H95.4641V20.2746H96.8404C97.3229 20.2746 97.7012 20.388 97.9753 20.6148C98.2495 20.838 98.3866 21.1494 98.3866 21.549C98.3866 21.8478 98.3078 22.0998 98.1508 22.305C97.9973 22.5066 97.7759 22.6487 97.4873 22.7316L98.4469 24.0546H98.1289ZM96.8404 22.575C97.2496 22.575 97.5621 22.4867 97.7779 22.3104C97.9938 22.1303 98.1014 21.8765 98.1014 21.549C98.1014 21.2214 97.9938 20.9693 97.7779 20.793C97.5621 20.6129 97.2496 20.523 96.8404 20.523H95.7438V22.575H96.8404ZM101.329 20.2746H101.609V24.0546H101.329V20.2746ZM107.991 20.2746V24.0546H107.76L105.145 20.7714V24.0546H104.865V20.2746H105.101L107.711 23.5578V20.2746H107.991ZM113.992 22.1808H114.26V23.5956C114.092 23.754 113.887 23.8745 113.646 23.9574C113.408 24.0402 113.156 24.0816 112.89 24.0816C112.509 24.0816 112.166 23.9987 111.859 23.8332C111.555 23.6676 111.316 23.439 111.14 23.1474C110.968 22.8558 110.883 22.5282 110.883 22.1646C110.883 21.8009 110.968 21.4734 111.14 21.1818C111.316 20.8902 111.555 20.6615 111.859 20.496C112.166 20.3304 112.511 20.2476 112.895 20.2476C113.177 20.2476 113.434 20.2926 113.668 20.3826C113.906 20.469 114.109 20.5967 114.277 20.766L114.101 20.9496C113.94 20.7911 113.759 20.6777 113.558 20.6094C113.361 20.5373 113.142 20.5014 112.9 20.5014C112.572 20.5014 112.273 20.5734 112.007 20.7174C111.744 20.8613 111.537 21.0611 111.387 21.3168C111.237 21.5687 111.162 21.8514 111.162 22.1646C111.162 22.4742 111.237 22.7567 111.387 23.0124C111.541 23.2643 111.749 23.4641 112.012 23.6118C112.275 23.7557 112.572 23.8278 112.9 23.8278C113.339 23.8278 113.703 23.7125 113.992 23.4822V22.1808ZM121.472 20.523H120.09V20.2746H123.133V20.523H121.751V24.0546H121.472V20.523ZM128.41 24.0546L127.495 22.791C127.36 22.809 127.235 22.818 127.122 22.818H126.025V24.0546H125.746V20.2746H127.122C127.604 20.2746 127.983 20.388 128.257 20.6148C128.531 20.838 128.668 21.1494 128.668 21.549C128.668 21.8478 128.59 22.0998 128.432 22.305C128.279 22.5066 128.058 22.6487 127.769 22.7316L128.728 24.0546H128.41ZM127.122 22.575C127.532 22.575 127.844 22.4867 128.059 22.3104C128.275 22.1303 128.383 21.8765 128.383 21.549C128.383 21.2214 128.275 20.9693 128.059 20.793C127.844 20.6129 127.532 20.523 127.122 20.523H126.025V22.575H127.122ZM133.985 22.9908H131.759L131.271 24.0546H130.969L132.735 20.2746H133.015L134.78 24.0546H134.478L133.985 22.9908ZM133.881 22.7586L132.872 20.577L131.869 22.7586H133.881ZM137.676 20.523V22.1376H139.721V22.386H137.676V24.0546H137.396V20.2746H139.962V20.523H137.676ZM143.054 20.523V22.1376H145.099V22.386H143.054V24.0546H142.774V20.2746H145.34V20.523H143.054ZM148.152 20.2746H148.432V24.0546H148.152V20.2746ZM153.311 24.0816C152.935 24.0816 152.595 23.9987 152.291 23.8332C151.992 23.6676 151.754 23.439 151.578 23.1474C151.407 22.8558 151.321 22.5282 151.321 22.1646C151.321 21.8009 151.407 21.4734 151.578 21.1818C151.754 20.8902 151.992 20.6615 152.291 20.496C152.595 20.3304 152.935 20.2476 153.311 20.2476C153.589 20.2476 153.845 20.2926 154.079 20.3826C154.313 20.469 154.512 20.5986 154.676 20.7714L154.501 20.9496C154.194 20.6507 153.801 20.5014 153.322 20.5014C153 20.5014 152.708 20.5734 152.445 20.7174C152.181 20.8613 151.975 21.0611 151.825 21.3168C151.676 21.5687 151.6 21.8514 151.6 22.1646C151.6 22.4778 151.676 22.7621 151.825 23.0178C151.975 23.2697 152.181 23.4678 152.445 23.6118C152.708 23.7557 153 23.8278 153.322 23.8278C153.797 23.8278 154.19 23.6766 154.501 23.3742L154.676 23.5524C154.512 23.7252 154.311 23.8566 154.073 23.9466C153.839 24.0365 153.585 24.0816 153.311 24.0816Z" fill="#29282C"/>
</g>
<defs>
<clipPath id="clip0_1_1483">
<rect width="161" height="27" fill="white" transform="translate(0.5)"/>
</clipPath>
</defs>
</svg>
