<svg width="24" height="25" viewBox="0 0 24 25" fill="none" xmlns="http://www.w3.org/2000/svg">
<path fill-rule="evenodd" clip-rule="evenodd" d="M18.483 19.8986V19.8966L18.501 19.8536L21.5 4.73358V4.68558C21.5 4.30858 21.36 3.97958 21.058 3.78258C20.793 3.60958 20.488 3.59758 20.274 3.61358C20.0748 3.63159 19.8782 3.67184 19.688 3.73358C19.6068 3.75973 19.5268 3.78909 19.448 3.82158L19.435 3.82658L2.71497 10.3856L2.70997 10.3876C2.65914 10.4049 2.60938 10.4253 2.56097 10.4486C2.44206 10.502 2.32797 10.5656 2.21997 10.6386C2.00497 10.7866 1.59597 11.1346 1.66497 11.6866C1.72197 12.1446 2.03697 12.4346 2.24997 12.5856C2.3757 12.6737 2.51087 12.7475 2.65297 12.8056L2.68497 12.8196L2.69497 12.8226L2.70197 12.8256L5.62797 13.8106C5.61797 13.9936 5.63597 14.1806 5.68497 14.3656L7.14997 19.9246C7.23 20.2276 7.40294 20.4979 7.64449 20.6976C7.88605 20.8973 8.18408 21.0163 8.49675 21.038C8.80941 21.0596 9.12099 20.9827 9.38774 20.8182C9.65448 20.6537 9.86298 20.4097 9.98397 20.1206L12.272 17.6746L16.201 20.6866L16.257 20.7106C16.614 20.8666 16.947 20.9156 17.252 20.8746C17.557 20.8326 17.799 20.7046 17.981 20.5596C18.1915 20.3889 18.3593 20.1715 18.471 19.9246L18.479 19.9076L18.482 19.9016L18.483 19.8986ZM7.13497 13.9836C7.11875 13.9219 7.1226 13.8566 7.14598 13.7973C7.16936 13.738 7.21104 13.6876 7.26497 13.6536L17.186 7.35358C17.186 7.35358 17.77 6.99858 17.749 7.35358C17.749 7.35358 17.853 7.41558 17.54 7.70658C17.244 7.98358 10.469 14.5246 9.78297 15.1866C9.74483 15.2236 9.7181 15.2708 9.70597 15.3226L8.59997 19.5426L7.13497 13.9826V13.9836Z" fill="#EF9516"/>
</svg>
