<svg width="18" height="15" viewBox="0 0 18 15" fill="none" xmlns="http://www.w3.org/2000/svg">
<path fill-rule="evenodd" clip-rule="evenodd" d="M14.7153 13.7807V13.779L14.7303 13.7432L17.2295 1.14322V1.10322C17.2295 0.78905 17.1128 0.514883 16.8611 0.350716C16.6403 0.206549 16.3861 0.19655 16.2078 0.209883C16.0418 0.224896 15.878 0.258438 15.7195 0.309883C15.6519 0.331679 15.5851 0.356142 15.5195 0.383216L15.5086 0.387383L1.5753 5.85322L1.57113 5.85488C1.52877 5.86935 1.48731 5.88632 1.44697 5.90572C1.34788 5.95024 1.2528 6.00321 1.1628 6.06405C0.983635 6.18738 0.642801 6.47738 0.700301 6.93738C0.747801 7.31905 1.0103 7.56072 1.1878 7.68655C1.29257 7.75997 1.40521 7.82146 1.52363 7.86988L1.5503 7.88155L1.55863 7.88405L1.56447 7.88655L4.0028 8.70738C3.99447 8.85988 4.00947 9.01572 4.0503 9.16988L5.27113 13.8024C5.33783 14.0549 5.48194 14.2802 5.68324 14.4466C5.88453 14.613 6.13289 14.7122 6.39345 14.7302C6.654 14.7482 6.91365 14.6842 7.13594 14.5471C7.35823 14.4099 7.53198 14.2066 7.6328 13.9657L9.53947 11.9274L12.8136 14.4374L12.8603 14.4574C13.1578 14.5874 13.4353 14.6282 13.6895 14.594C13.9436 14.559 14.1453 14.4524 14.297 14.3315C14.4724 14.1893 14.6122 14.0081 14.7053 13.8024L14.712 13.7882L14.7145 13.7832L14.7153 13.7807ZM5.25863 8.85155C5.24511 8.80015 5.24833 8.74578 5.26781 8.69633C5.28729 8.64687 5.32202 8.60492 5.36697 8.57655L13.6345 3.32655C13.6345 3.32655 14.1211 3.03072 14.1036 3.32655C14.1036 3.32655 14.1903 3.37822 13.9295 3.62072C13.6828 3.85155 8.03697 9.30238 7.4653 9.85405C7.43351 9.88491 7.41125 9.92425 7.40113 9.96738L6.47947 13.484L5.25863 8.85072V8.85155Z" fill="#EF9516"/>
</svg>
