<svg width="21" height="17" viewBox="0 0 21 17" fill="none" xmlns="http://www.w3.org/2000/svg">
<path d="M2.08447 16.9009C1.53447 16.9009 1.06347 16.7049 0.671474 16.3129C0.279474 15.9209 0.0838077 15.4502 0.0844744 14.9009V2.90088C0.0844744 2.35088 0.280474 1.87988 0.672474 1.48788C1.06447 1.09588 1.53514 0.900214 2.08447 0.900881H18.0845C18.6345 0.900881 19.1055 1.09688 19.4975 1.48888C19.8895 1.88088 20.0851 2.35155 20.0845 2.90088V14.9009C20.0845 15.4509 19.8885 15.9219 19.4965 16.3139C19.1045 16.7059 18.6338 16.9015 18.0845 16.9009H2.08447ZM10.0845 9.72588C10.1678 9.72588 10.2555 9.71321 10.3475 9.68788C10.4395 9.66255 10.5268 9.62521 10.6095 9.57588L17.6845 5.15088C17.8178 5.06755 17.9178 4.96321 17.9845 4.83788C18.0511 4.71255 18.0845 4.57521 18.0845 4.42588C18.0845 4.09255 17.9428 3.84255 17.6595 3.67588C17.3761 3.50921 17.0845 3.51755 16.7845 3.70088L10.0845 7.90088L3.38447 3.70088C3.08447 3.51755 2.79281 3.51355 2.50947 3.68888C2.22614 3.86421 2.08447 4.10988 2.08447 4.42588C2.08447 4.59255 2.11781 4.73855 2.18447 4.86388C2.25114 4.98921 2.35114 5.08488 2.48447 5.15088L9.55947 9.57588C9.64281 9.62588 9.73047 9.66355 9.82247 9.68888C9.91447 9.71421 10.0018 9.72655 10.0845 9.72588Z" fill="#00AAF0"/>
</svg>
