<svg width="18" height="15" viewBox="0 0 18 15" fill="none" xmlns="http://www.w3.org/2000/svg">
<path fill-rule="evenodd" clip-rule="evenodd" d="M14.5 13.8471V13.8455L14.515 13.8096L17.0141 1.20962V1.16962C17.0141 0.855456 16.8975 0.581289 16.6458 0.417122C16.425 0.272956 16.1708 0.262956 15.9925 0.276289C15.8265 0.291302 15.6627 0.324844 15.5041 0.376289C15.4365 0.398085 15.3698 0.422548 15.3041 0.449622L15.2933 0.453789L1.35997 5.91962L1.3558 5.92129C1.31344 5.93575 1.27198 5.95273 1.23164 5.97212C1.13254 6.01664 1.03747 6.06962 0.947469 6.13046C0.768303 6.25379 0.427469 6.54379 0.484969 7.00379C0.532469 7.38546 0.794969 7.62712 0.972469 7.75296C1.07724 7.82638 1.18988 7.88787 1.3083 7.93629L1.33497 7.94796L1.3433 7.95046L1.34914 7.95296L3.78747 8.77379C3.77914 8.92629 3.79414 9.08212 3.83497 9.23629L5.0558 13.8688C5.1225 14.1213 5.26661 14.3466 5.4679 14.513C5.6692 14.6794 5.91756 14.7786 6.17812 14.7966C6.43867 14.8146 6.69832 14.7506 6.92061 14.6135C7.14289 14.4764 7.31665 14.2731 7.41747 14.0321L9.32414 11.9938L12.5983 14.5038L12.645 14.5238C12.9425 14.6538 13.22 14.6946 13.4741 14.6605C13.7283 14.6255 13.93 14.5188 14.0816 14.398C14.2571 14.2557 14.3969 14.0745 14.49 13.8688L14.4966 13.8546L14.4991 13.8496L14.5 13.8471ZM5.0433 8.91796C5.02978 8.86655 5.033 8.81218 5.05248 8.76273C5.07196 8.71328 5.10669 8.67132 5.15164 8.64295L13.4191 3.39296C13.4191 3.39296 13.9058 3.09712 13.8883 3.39296C13.8883 3.39296 13.975 3.44462 13.7141 3.68712C13.4675 3.91796 7.82164 9.36879 7.24997 9.92045C7.21818 9.95132 7.19591 9.99065 7.1858 10.0338L6.26414 13.5505L5.0433 8.91712V8.91796Z" fill="#EF9516"/>
</svg>
